<svg width="2435" height="2358" viewBox="0 0 2435 2358" fill="none" xmlns="http://www.w3.org/2000/svg">
<path d="M34.5128 18.1193C34.5128 22.9249 32.6951 27.5335 29.4589 30.9316C26.2227 34.3296 21.8331 36.239 17.2564 36.239C12.6797 36.239 8.29018 34.3296 5.05395 30.9316C1.81772 27.5335 9.59232e-07 22.9249 9.59232e-07 18.1193C9.59232e-07 13.3153 1.81739 8.70801 5.05254 5.31108C8.2877 1.91416 12.6756 0.00589629 17.2508 0.00589629C21.826 0.00589629 26.2139 1.91416 29.4491 5.31108C32.6842 8.70801 34.5128 13.3153 34.5128 18.1193ZM252.643 18.1193C252.643 22.9233 250.826 27.5306 247.591 30.9275C244.356 34.3244 239.968 36.2327 235.392 36.2327C230.817 36.2327 226.43 34.3244 223.195 30.9275C219.96 27.5306 218.142 22.9233 218.142 18.1193C218.142 13.3153 219.96 8.70801 223.195 5.31108C226.43 1.91416 230.817 0.00589629 235.392 0.00589629C239.968 0.00589629 244.356 1.91416 247.591 5.31108C250.826 8.70801 252.643 13.3153 252.643 18.1193ZM470.786 18.1193C470.786 22.9249 468.968 27.5335 465.732 30.9316C462.495 34.3296 458.106 36.239 453.529 36.239C448.952 36.239 444.563 34.3296 441.327 30.9316C438.09 27.5335 436.273 22.9249 436.273 18.1193C436.273 13.3137 438.09 8.70509 441.327 5.30703C444.563 1.90898 448.952 0 453.529 0C458.106 0 462.495 1.90898 465.732 5.30703C468.968 8.70509 470.786 13.3137 470.786 18.1193ZM688.928 18.1193C688.928 22.9249 687.11 27.5335 683.873 30.9316C680.637 34.3296 676.248 36.239 671.672 36.239C667.095 36.239 662.705 34.3296 659.469 30.9316C656.233 27.5335 654.415 22.9249 654.415 18.1193C654.415 13.3153 656.233 8.70801 659.468 5.31108C662.703 1.91416 667.091 0.00589629 671.666 0.00589629C676.241 0.00589629 680.628 1.91416 683.863 5.31108C687.099 8.70801 688.928 13.3153 688.928 18.1193ZM907.07 18.1193C907.07 22.9249 905.252 27.5335 902.016 30.9316C898.779 34.3296 894.39 36.239 889.813 36.239C885.236 36.239 880.848 34.3296 877.611 30.9316C874.375 27.5335 872.557 22.9249 872.557 18.1193C872.557 13.3153 874.374 8.70801 877.609 5.31108C880.844 1.91416 885.232 0.00589629 889.808 0.00589629C894.383 0.00589629 898.771 1.91416 902.006 5.31108C905.241 8.70801 907.058 13.3153 907.058 18.1193H907.07ZM1125.2 18.1193C1125.2 22.9233 1123.38 27.5306 1120.15 30.9275C1116.91 34.3244 1112.53 36.2327 1107.95 36.2327C1103.37 36.2327 1098.99 34.3244 1095.75 30.9275C1092.52 27.5306 1090.7 22.9233 1090.7 18.1193C1090.7 13.3153 1092.52 8.70801 1095.75 5.31108C1098.99 1.91416 1103.37 0.00589629 1107.95 0.00589629C1112.53 0.00589629 1116.91 1.91416 1120.15 5.31108C1123.38 8.70801 1125.2 13.3153 1125.2 18.1193ZM1343.34 18.1193C1343.34 22.9233 1341.53 27.5306 1338.29 30.9275C1335.06 34.3244 1330.67 36.2327 1326.09 36.2327C1321.52 36.2327 1317.13 34.3244 1313.89 30.9275C1310.66 27.5306 1308.84 22.9233 1308.84 18.1193C1308.84 13.3153 1310.66 8.70801 1313.89 5.31108C1317.13 1.91416 1321.52 0.00589629 1326.09 0.00589629C1330.67 0.00589629 1335.06 1.91416 1338.29 5.31108C1341.53 8.70801 1343.34 13.3153 1343.34 18.1193ZM1561.5 18.1193C1561.5 22.9249 1559.68 27.5335 1556.44 30.9316C1553.21 34.3296 1548.82 36.239 1544.24 36.239C1539.66 36.239 1535.27 34.3296 1532.04 30.9316C1528.8 27.5335 1526.98 22.9249 1526.98 18.1193C1526.98 13.3137 1528.8 8.70509 1532.04 5.30703C1535.27 1.90898 1539.66 0 1544.24 0C1548.82 0 1553.21 1.90898 1556.44 5.30703C1559.68 8.70509 1561.5 13.3137 1561.5 18.1193ZM1779.64 18.1193C1779.64 22.9249 1777.82 27.5335 1774.58 30.9316C1771.35 34.3296 1766.96 36.239 1762.38 36.239C1757.81 36.239 1753.42 34.3296 1750.18 30.9316C1746.94 27.5335 1745.13 22.9249 1745.13 18.1193C1745.13 13.3153 1746.94 8.70801 1750.18 5.31108C1753.41 1.91416 1757.8 0.00589629 1762.38 0.00589629C1766.95 0.00589629 1771.34 1.91416 1774.57 5.31108C1777.81 8.70801 1779.64 13.3153 1779.64 18.1193ZM1997.78 18.1193C1997.78 22.9265 1995.96 27.5368 1992.72 30.936C1989.49 34.3352 1985.1 36.2449 1980.52 36.2449C1975.94 36.2449 1971.55 34.3352 1968.31 30.936C1965.07 27.5368 1963.26 22.9265 1963.26 18.1193C1963.26 13.3137 1965.07 8.70509 1968.31 5.30703C1971.55 1.90898 1975.94 0 1980.51 0C1985.09 0 1989.48 1.90898 1992.71 5.30703C1995.95 8.70509 1997.78 13.3137 1997.78 18.1193ZM2215.91 18.1193C2215.91 22.9233 2214.09 27.5306 2210.86 30.9275C2207.62 34.3244 2203.24 36.2327 2198.66 36.2327C2194.09 36.2327 2189.7 34.3244 2186.46 30.9275C2183.23 27.5306 2181.41 22.9233 2181.41 18.1193C2181.41 13.3153 2183.23 8.70801 2186.46 5.31108C2189.7 1.91416 2194.09 0.00589629 2198.66 0.00589629C2203.24 0.00589629 2207.62 1.91416 2210.86 5.31108C2214.09 8.70801 2215.91 13.3153 2215.91 18.1193ZM2434.05 18.1193C2434.05 22.9249 2432.24 27.5335 2429 30.9316C2425.76 34.3296 2421.37 36.239 2416.8 36.239C2412.22 36.239 2407.83 34.3296 2404.59 30.9316C2401.36 27.5335 2399.54 22.9249 2399.54 18.1193C2399.54 13.3137 2401.36 8.70509 2404.59 5.30703C2407.83 1.90898 2412.22 0 2416.8 0C2421.37 0 2425.76 1.90898 2429 5.30703C2432.24 8.70509 2434.05 13.3137 2434.05 18.1193ZM34.5128 250.249C34.5121 252.628 34.0653 254.984 33.1974 257.182C32.3295 259.38 31.0576 261.377 29.4547 263.059C27.8517 264.741 25.9486 266.075 23.8546 266.985C21.7607 267.895 19.517 268.363 17.2508 268.362C14.9846 268.361 12.7404 267.892 10.647 266.98C8.55361 266.069 6.65232 264.734 5.05044 263.051C3.44855 261.368 2.17774 259.37 1.31122 257.171C0.444694 254.973 -0.000754471 252.616 9.59232e-07 250.237C0.00152602 245.433 1.82052 240.826 5.05675 237.43C8.29299 234.035 12.6812 232.128 17.2564 232.129C21.8316 232.131 26.2185 234.041 29.4526 237.439C32.6866 240.837 34.5144 245.445 34.5128 250.249ZM252.643 250.249C252.642 255.053 250.823 259.659 247.587 263.055C244.351 266.451 239.962 268.358 235.387 268.356C230.812 268.354 226.425 266.445 223.191 263.046C219.957 259.648 218.14 255.041 218.142 250.237C218.143 245.433 219.962 240.826 223.198 237.43C226.435 234.035 230.824 232.128 235.399 232.129C239.974 232.131 244.361 234.041 247.595 237.439C250.829 240.837 252.645 245.445 252.643 250.249ZM470.786 250.249C470.785 252.628 470.338 254.984 469.47 257.182C468.602 259.38 467.33 261.377 465.727 263.059C464.124 264.741 462.221 266.075 460.127 266.985C458.033 267.895 455.79 268.363 453.524 268.362C451.257 268.361 449.013 267.892 446.92 266.98C444.826 266.069 442.925 264.734 441.323 263.051C439.721 261.368 438.451 259.37 437.584 257.171C436.717 254.973 436.272 252.616 436.273 250.237C436.274 245.431 438.094 240.823 441.331 237.426C444.568 234.029 448.958 232.122 453.535 232.123C458.112 232.125 462.5 234.035 465.735 237.434C468.97 240.834 470.787 245.443 470.786 250.249ZM688.928 250.249C688.927 252.628 688.48 254.984 687.612 257.182C686.744 259.38 685.473 261.377 683.87 263.059C682.267 264.741 680.364 266.075 678.27 266.985C676.176 267.895 673.932 268.363 671.666 268.362C669.4 268.361 667.155 267.892 665.062 266.98C662.969 266.069 661.067 264.734 659.465 263.051C657.863 261.368 656.593 259.37 655.726 257.171C654.86 254.973 654.414 252.616 654.415 250.237C654.417 245.433 656.235 240.826 659.471 237.43C662.707 234.035 667.096 232.128 671.672 232.129C676.247 232.131 680.634 234.041 683.868 237.439C687.102 240.837 688.929 245.445 688.928 250.249ZM907.07 250.249C907.07 252.628 906.622 254.984 905.754 257.182C904.886 259.38 903.614 261.377 902.011 263.059C900.408 264.741 898.506 266.075 896.412 266.985C894.318 267.895 892.074 268.363 889.808 268.362C887.541 268.361 885.298 267.892 883.204 266.98C881.111 266.069 879.209 264.734 877.607 263.051C876.005 261.368 874.735 259.37 873.868 257.171C873.001 254.973 872.556 252.616 872.557 250.237C872.558 245.433 874.377 240.826 877.614 237.43C880.85 234.035 885.238 232.128 889.813 232.129C894.388 232.131 898.776 234.041 902.01 237.439C905.244 240.837 907.06 245.445 907.058 250.249H907.07ZM1125.2 250.249C1125.2 255.053 1123.38 259.66 1120.15 263.057C1116.91 266.454 1112.53 268.362 1107.95 268.362C1103.37 268.362 1098.99 266.454 1095.75 263.057C1092.52 259.66 1090.7 255.053 1090.7 250.249C1090.7 245.445 1092.52 240.838 1095.75 237.441C1098.99 234.044 1103.37 232.135 1107.95 232.135C1112.53 232.135 1116.91 234.044 1120.15 237.441C1123.38 240.838 1125.2 245.445 1125.2 250.249ZM1343.34 250.249C1343.34 255.053 1341.53 259.66 1338.29 263.057C1335.06 266.454 1330.67 268.362 1326.09 268.362C1321.52 268.362 1317.13 266.454 1313.89 263.057C1310.66 259.66 1308.84 255.053 1308.84 250.249C1308.84 245.445 1310.66 240.838 1313.89 237.441C1317.13 234.044 1321.52 232.135 1326.09 232.135C1330.67 232.135 1335.06 234.044 1338.29 237.441C1341.53 240.838 1343.34 245.445 1343.34 250.249ZM1561.5 250.249C1561.5 255.054 1559.68 259.662 1556.44 263.059C1553.2 266.456 1548.81 268.364 1544.23 268.362C1539.66 268.36 1535.27 266.45 1532.03 263.051C1528.8 259.652 1526.98 255.042 1526.98 250.237C1526.98 245.431 1528.8 240.823 1532.04 237.426C1535.28 234.029 1539.67 232.122 1544.25 232.123C1548.82 232.125 1553.21 234.035 1556.45 237.434C1559.68 240.834 1561.5 245.443 1561.5 250.249ZM1779.64 250.249C1779.64 255.054 1777.82 259.662 1774.58 263.059C1771.34 266.456 1766.95 268.364 1762.38 268.362C1757.8 268.36 1753.41 266.45 1750.18 263.051C1746.94 259.652 1745.12 255.042 1745.13 250.237C1745.13 245.433 1746.95 240.826 1750.18 237.43C1753.42 234.035 1757.81 232.128 1762.38 232.129C1766.96 232.131 1771.34 234.041 1774.58 237.439C1777.81 240.837 1779.64 245.445 1779.64 250.249ZM1997.78 250.249C1997.78 252.629 1997.33 254.986 1996.46 257.184C1995.6 259.383 1994.32 261.381 1992.72 263.064C1991.12 264.746 1989.21 266.081 1987.12 266.991C1985.02 267.901 1982.78 268.369 1980.51 268.368C1978.25 268.367 1976 267.898 1973.91 266.986C1971.81 266.075 1969.91 264.739 1968.31 263.055C1966.71 261.371 1965.43 259.373 1964.57 257.173C1963.7 254.974 1963.26 252.617 1963.26 250.237C1963.26 245.431 1965.08 240.823 1968.31 237.426C1971.55 234.029 1975.94 232.122 1980.52 232.123C1985.1 232.125 1989.48 234.035 1992.72 237.434C1995.95 240.834 1997.78 245.443 1997.78 250.249ZM2215.91 250.249C2215.91 252.627 2215.46 254.983 2214.6 257.18C2213.73 259.377 2212.46 261.374 2210.86 263.055C2209.25 264.736 2207.35 266.07 2205.26 266.98C2203.16 267.889 2200.92 268.357 2198.65 268.356C2196.39 268.355 2194.15 267.886 2192.05 266.975C2189.96 266.064 2188.06 264.729 2186.46 263.046C2184.86 261.364 2183.59 259.367 2182.72 257.169C2181.85 254.971 2181.41 252.615 2181.41 250.237C2181.41 245.433 2183.23 240.826 2186.47 237.43C2189.7 234.035 2194.09 232.128 2198.67 232.129C2203.24 232.131 2207.63 234.041 2210.86 237.439C2214.1 240.837 2215.91 245.445 2215.91 250.249ZM2434.05 250.249C2434.05 255.054 2432.23 259.662 2429 263.059C2425.76 266.456 2421.37 268.364 2416.79 268.362C2412.21 268.36 2407.83 266.45 2404.59 263.051C2401.36 259.652 2399.54 255.042 2399.54 250.237C2399.54 245.431 2401.36 240.823 2404.6 237.426C2407.84 234.029 2412.23 232.122 2416.8 232.123C2421.38 232.125 2425.77 234.035 2429 237.434C2432.24 240.834 2434.05 245.443 2434.05 250.249ZM34.5128 482.39C34.5121 484.769 34.0653 487.126 33.1974 489.324C32.3295 491.522 31.0576 493.519 29.4547 495.201C27.8517 496.883 25.9486 498.217 23.8546 499.127C21.7607 500.036 19.517 500.504 17.2508 500.503C14.9846 500.503 12.7404 500.033 10.647 499.122C8.55361 498.211 6.65232 496.875 5.05044 495.192C3.44855 493.509 2.17774 491.511 1.31122 489.313C0.444694 487.114 -0.000754471 484.758 9.59232e-07 482.378C9.59233e-07 477.574 1.81739 472.967 5.05254 469.57C8.2877 466.173 12.6756 464.265 17.2508 464.265C21.826 464.265 26.2139 466.173 29.4491 469.57C32.6842 472.967 34.5016 477.574 34.5016 482.378L34.5128 482.39ZM252.643 482.39C252.642 487.194 250.823 491.801 247.587 495.196C244.351 498.592 239.962 500.499 235.387 500.498C230.812 500.496 226.425 498.586 223.191 495.188C219.957 491.79 218.14 487.182 218.142 482.378C218.142 477.574 219.96 472.967 223.195 469.57C226.43 466.173 230.817 464.265 235.392 464.265C239.968 464.265 244.356 466.173 247.591 469.57C250.826 472.967 252.643 477.586 252.643 482.39ZM470.786 482.39C470.785 484.769 470.338 487.126 469.47 489.324C468.602 491.522 467.33 493.519 465.727 495.201C464.124 496.883 462.221 498.217 460.127 499.127C458.033 500.036 455.79 500.504 453.524 500.503C451.257 500.503 449.013 500.033 446.92 499.122C444.826 498.211 442.925 496.875 441.323 495.192C439.721 493.509 438.451 491.511 437.584 489.313C436.717 487.114 436.272 484.758 436.273 482.378C436.273 477.573 438.09 472.964 441.327 469.566C444.563 466.168 448.952 464.259 453.529 464.259C458.106 464.259 462.495 466.168 465.732 469.566C468.968 472.964 470.786 477.584 470.786 482.39ZM688.928 482.39C688.927 484.769 688.48 487.126 687.612 489.324C686.744 491.522 685.473 493.519 683.87 495.201C682.267 496.883 680.364 498.217 678.27 499.127C676.176 500.036 673.932 500.504 671.666 500.503C669.4 500.503 667.155 500.033 665.062 499.122C662.969 498.211 661.067 496.875 659.465 495.192C657.863 493.509 656.593 491.511 655.726 489.313C654.86 487.114 654.414 484.758 654.415 482.378C654.415 477.574 656.233 472.967 659.468 469.57C662.703 466.173 667.091 464.265 671.666 464.265C676.241 464.265 680.628 466.173 683.863 469.57C687.099 472.967 688.917 477.574 688.917 482.378L688.928 482.39ZM907.07 482.39C907.07 484.769 906.622 487.126 905.754 489.324C904.886 491.522 903.614 493.519 902.011 495.201C900.408 496.883 898.506 498.217 896.412 499.127C894.318 500.036 892.074 500.504 889.808 500.503C887.541 500.503 885.298 500.033 883.204 499.122C881.111 498.211 879.209 496.875 877.607 495.192C876.005 493.509 874.735 491.511 873.868 489.313C873.001 487.114 872.556 484.758 872.557 482.378C872.557 477.574 874.374 472.967 877.609 469.57C880.844 466.173 885.232 464.265 889.808 464.265C894.383 464.265 898.771 466.173 902.006 469.57C905.241 472.967 907.058 477.574 907.058 482.378L907.07 482.39ZM1125.2 482.39C1125.2 487.194 1123.38 491.801 1120.15 495.198C1116.91 498.595 1112.53 500.503 1107.95 500.503C1103.37 500.503 1098.99 498.595 1095.75 495.198C1092.52 491.801 1090.7 487.194 1090.7 482.39C1090.7 477.586 1092.52 472.979 1095.75 469.582C1098.99 466.185 1103.37 464.277 1107.95 464.277C1112.53 464.277 1116.91 466.185 1120.15 469.582C1123.38 472.979 1125.2 477.586 1125.2 482.39ZM1343.34 482.39C1343.34 487.194 1341.53 491.801 1338.29 495.198C1335.06 498.595 1330.67 500.503 1326.09 500.503C1321.52 500.503 1317.13 498.595 1313.89 495.198C1310.66 491.801 1308.84 487.194 1308.84 482.39C1308.84 477.586 1310.66 472.979 1313.89 469.582C1317.13 466.185 1321.52 464.277 1326.09 464.277C1330.67 464.277 1335.06 466.185 1338.29 469.582C1341.53 472.979 1343.34 477.586 1343.34 482.39ZM1561.5 482.39C1561.5 487.196 1559.68 491.804 1556.44 495.201C1553.2 498.598 1548.81 500.505 1544.23 500.503C1539.66 500.502 1535.27 498.592 1532.03 495.192C1528.8 491.793 1526.98 487.184 1526.98 482.378C1526.98 477.573 1528.8 472.964 1532.04 469.566C1535.27 466.168 1539.66 464.259 1544.24 464.259C1548.82 464.259 1553.21 466.168 1556.44 469.566C1559.68 472.964 1561.5 477.584 1561.5 482.39ZM1779.64 482.39C1779.64 487.196 1777.82 491.804 1774.58 495.201C1771.34 498.598 1766.95 500.505 1762.38 500.503C1757.8 500.502 1753.41 498.592 1750.18 495.192C1746.94 491.793 1745.12 487.184 1745.13 482.378C1745.13 477.574 1746.94 472.967 1750.18 469.57C1753.41 466.173 1757.8 464.265 1762.38 464.265C1766.95 464.265 1771.34 466.173 1774.57 469.57C1777.81 472.967 1779.63 477.574 1779.63 482.378L1779.64 482.39ZM1997.78 482.39C1997.78 487.197 1995.96 491.807 1992.72 495.205C1989.48 498.603 1985.09 500.511 1980.51 500.51C1975.93 500.508 1971.54 498.597 1968.31 495.196C1965.07 491.796 1963.25 487.185 1963.26 482.378C1963.26 477.573 1965.07 472.964 1968.31 469.566C1971.55 466.168 1975.94 464.259 1980.51 464.259C1985.09 464.259 1989.48 466.168 1992.71 469.566C1995.95 472.964 1997.77 477.573 1997.77 482.378L1997.78 482.39ZM2215.91 482.39C2215.91 484.769 2215.46 487.124 2214.6 489.321C2213.73 491.519 2212.46 493.515 2210.86 495.196C2209.25 496.878 2207.35 498.212 2205.26 499.121C2203.16 500.031 2200.92 500.498 2198.65 500.498C2196.39 500.497 2194.15 500.027 2192.05 499.116C2189.96 498.205 2188.06 496.87 2186.46 495.188C2184.86 493.505 2183.59 491.508 2182.72 489.31C2181.85 487.112 2181.41 484.757 2181.41 482.378C2181.41 477.574 2183.23 472.967 2186.46 469.57C2189.7 466.173 2194.09 464.265 2198.66 464.265C2203.24 464.265 2207.62 466.173 2210.86 469.57C2214.09 472.967 2215.91 477.586 2215.91 482.39ZM2434.05 482.39C2434.05 487.196 2432.23 491.804 2429 495.201C2425.76 498.598 2421.37 500.505 2416.79 500.503C2412.21 500.502 2407.83 498.592 2404.59 495.192C2401.36 491.793 2399.54 487.184 2399.54 482.378C2399.54 477.573 2401.36 472.964 2404.59 469.566C2407.83 466.168 2412.22 464.259 2416.8 464.259C2421.37 464.259 2425.76 466.168 2429 469.566C2432.24 472.964 2434.05 477.584 2434.05 482.39ZM34.5128 714.507C34.5128 719.313 32.6951 723.922 29.4589 727.32C26.2227 730.718 21.8331 732.627 17.2564 732.627C12.6797 732.627 8.29018 730.718 5.05395 727.32C1.81772 723.922 9.59232e-07 719.313 9.59232e-07 714.507C9.59232e-07 709.703 1.81739 705.096 5.05254 701.699C8.2877 698.302 12.6756 696.394 17.2508 696.394C21.826 696.394 26.2139 698.302 29.4491 701.699C32.6842 705.096 34.5128 709.703 34.5128 714.507ZM252.643 714.507C252.643 719.311 250.826 723.919 247.591 727.316C244.356 730.713 239.968 732.621 235.392 732.621C230.817 732.621 226.43 730.713 223.195 727.316C219.96 723.919 218.142 719.311 218.142 714.507C218.142 709.703 219.96 705.096 223.195 701.699C226.43 698.302 230.817 696.394 235.392 696.394C239.968 696.394 244.356 698.302 247.591 701.699C250.826 705.096 252.643 709.703 252.643 714.507ZM470.786 714.507C470.786 719.313 468.968 723.922 465.732 727.32C462.495 730.718 458.106 732.627 453.529 732.627C448.952 732.627 444.563 730.718 441.327 727.32C438.09 723.922 436.273 719.313 436.273 714.507C436.273 709.702 438.09 705.093 441.327 701.695C444.563 698.297 448.952 696.388 453.529 696.388C458.106 696.388 462.495 698.297 465.732 701.695C468.968 705.093 470.786 709.702 470.786 714.507ZM688.928 714.507C688.928 719.313 687.11 723.922 683.873 727.32C680.637 730.718 676.248 732.627 671.672 732.627C667.095 732.627 662.705 730.718 659.469 727.32C656.233 723.922 654.415 719.313 654.415 714.507C654.415 709.703 656.233 705.096 659.468 701.699C662.703 698.302 667.091 696.394 671.666 696.394C676.241 696.394 680.628 698.302 683.863 701.699C687.099 705.096 688.928 709.703 688.928 714.507ZM907.07 714.507C907.07 719.313 905.252 723.922 902.016 727.32C898.779 730.718 894.39 732.627 889.813 732.627C885.236 732.627 880.848 730.718 877.611 727.32C874.375 723.922 872.557 719.313 872.557 714.507C872.557 709.703 874.374 705.096 877.609 701.699C880.844 698.302 885.232 696.394 889.808 696.394C894.383 696.394 898.771 698.302 902.006 701.699C905.241 705.096 907.058 709.703 907.058 714.507H907.07ZM1125.2 714.507C1125.2 719.311 1123.38 723.919 1120.15 727.316C1116.91 730.713 1112.53 732.621 1107.95 732.621C1103.37 732.621 1098.99 730.713 1095.75 727.316C1092.52 723.919 1090.7 719.311 1090.7 714.507C1090.7 709.703 1092.52 705.096 1095.75 701.699C1098.99 698.302 1103.37 696.394 1107.95 696.394C1112.53 696.394 1116.91 698.302 1120.15 701.699C1123.38 705.096 1125.2 709.703 1125.2 714.507ZM1343.34 714.507C1343.34 719.311 1341.53 723.919 1338.29 727.316C1335.06 730.713 1330.67 732.621 1326.09 732.621C1321.52 732.621 1317.13 730.713 1313.89 727.316C1310.66 723.919 1308.84 719.311 1308.84 714.507C1308.84 709.703 1310.66 705.096 1313.89 701.699C1317.13 698.302 1321.52 696.394 1326.09 696.394C1330.67 696.394 1335.06 698.302 1338.29 701.699C1341.53 705.096 1343.34 709.703 1343.34 714.507ZM1561.5 714.507C1561.5 719.313 1559.68 723.922 1556.44 727.32C1553.21 730.718 1548.82 732.627 1544.24 732.627C1539.66 732.627 1535.27 730.718 1532.04 727.32C1528.8 723.922 1526.98 719.313 1526.98 714.507C1526.98 709.702 1528.8 705.093 1532.04 701.695C1535.27 698.297 1539.66 696.388 1544.24 696.388C1548.82 696.388 1553.21 698.297 1556.44 701.695C1559.68 705.093 1561.5 709.702 1561.5 714.507ZM1779.64 714.507C1779.64 719.313 1777.82 723.922 1774.58 727.32C1771.35 730.718 1766.96 732.627 1762.38 732.627C1757.81 732.627 1753.42 730.718 1750.18 727.32C1746.94 723.922 1745.13 719.313 1745.13 714.507C1745.13 709.703 1746.94 705.096 1750.18 701.699C1753.41 698.302 1757.8 696.394 1762.38 696.394C1766.95 696.394 1771.34 698.302 1774.57 701.699C1777.81 705.096 1779.64 709.703 1779.64 714.507ZM1997.78 714.507C1997.78 719.315 1995.96 723.925 1992.72 727.324C1989.49 730.723 1985.1 732.633 1980.52 732.633C1975.94 732.633 1971.55 730.723 1968.31 727.324C1965.07 723.925 1963.26 719.315 1963.26 714.507C1963.26 709.702 1965.07 705.093 1968.31 701.695C1971.55 698.297 1975.94 696.388 1980.51 696.388C1985.09 696.388 1989.48 698.297 1992.71 701.695C1995.95 705.093 1997.78 709.702 1997.78 714.507ZM2215.91 714.507C2215.91 719.311 2214.09 723.919 2210.86 727.316C2207.62 730.713 2203.24 732.621 2198.66 732.621C2194.09 732.621 2189.7 730.713 2186.46 727.316C2183.23 723.919 2181.41 719.311 2181.41 714.507C2181.41 709.703 2183.23 705.096 2186.46 701.699C2189.7 698.302 2194.09 696.394 2198.66 696.394C2203.24 696.394 2207.62 698.302 2210.86 701.699C2214.09 705.096 2215.91 709.703 2215.91 714.507ZM2434.05 714.507C2434.05 719.313 2432.24 723.922 2429 727.32C2425.76 730.718 2421.37 732.627 2416.8 732.627C2412.22 732.627 2407.83 730.718 2404.59 727.32C2401.36 723.922 2399.54 719.313 2399.54 714.507C2399.54 709.702 2401.36 705.093 2404.59 701.695C2407.83 698.297 2412.22 696.388 2416.8 696.388C2421.37 696.388 2425.76 698.297 2429 701.695C2432.24 705.093 2434.05 709.702 2434.05 714.507ZM34.5128 946.637C34.5128 951.441 32.6954 956.048 29.4603 959.445C26.2251 962.842 21.8372 964.75 17.262 964.75C12.6868 964.75 8.29893 962.842 5.06377 959.445C1.82862 956.048 0.0112319 951.441 0.0112319 946.637C0.0112319 941.833 1.82862 937.226 5.06377 933.829C8.29893 930.432 12.6868 928.523 17.262 928.523C21.8372 928.523 26.2251 930.432 29.4603 933.829C32.6954 937.226 34.5128 941.833 34.5128 946.637ZM252.643 946.637C252.643 951.441 250.826 956.048 247.591 959.445C244.356 962.842 239.968 964.75 235.392 964.75C230.817 964.75 226.43 962.842 223.195 959.445C219.96 956.048 218.142 951.441 218.142 946.637C218.142 941.833 219.96 937.226 223.195 933.829C226.43 930.432 230.817 928.523 235.392 928.523C239.968 928.523 244.356 930.432 247.591 933.829C250.826 937.226 252.643 941.833 252.643 946.637ZM470.786 946.637C470.786 951.441 468.968 956.048 465.733 959.445C462.498 962.842 458.11 964.75 453.535 964.75C448.96 964.75 444.572 962.842 441.337 959.445C438.101 956.048 436.284 951.441 436.284 946.637C436.284 941.833 438.101 937.226 441.337 933.829C444.572 930.432 448.96 928.523 453.535 928.523C458.11 928.523 462.498 930.432 465.733 933.829C468.968 937.226 470.786 941.833 470.786 946.637ZM688.928 946.637C688.928 951.441 687.111 956.048 683.875 959.445C680.64 962.842 676.252 964.75 671.677 964.75C667.102 964.75 662.714 962.842 659.479 959.445C656.244 956.048 654.426 951.441 654.426 946.637C654.426 941.833 656.244 937.226 659.479 933.829C662.714 930.432 667.102 928.523 671.677 928.523C676.252 928.523 680.64 930.432 683.875 933.829C687.111 937.226 688.928 941.833 688.928 946.637ZM907.07 946.637C907.07 951.441 905.252 956.048 902.017 959.445C898.782 962.842 894.395 964.75 889.82 964.75C885.244 964.75 880.856 962.842 877.621 959.445C874.386 956.048 872.569 951.441 872.569 946.637C872.569 941.833 874.386 937.226 877.621 933.829C880.856 930.432 885.244 928.523 889.82 928.523C894.395 928.523 898.782 930.432 902.017 933.829C905.252 937.226 907.07 941.833 907.07 946.637ZM1125.2 946.637C1125.29 949.069 1124.9 951.495 1124.08 953.769C1123.25 956.043 1121.99 958.119 1120.38 959.872C1118.78 961.625 1116.85 963.02 1114.71 963.973C1112.58 964.925 1110.29 965.417 1107.97 965.418C1105.65 965.418 1103.35 964.928 1101.22 963.977C1099.09 963.026 1097.16 961.632 1095.55 959.881C1093.94 958.129 1092.68 956.054 1091.85 953.78C1091.02 951.507 1090.64 949.082 1090.72 946.649C1090.88 941.962 1092.77 937.525 1095.98 934.269C1099.2 931.013 1103.49 929.192 1107.96 929.191C1112.42 929.189 1116.71 931.006 1119.93 934.26C1123.15 937.514 1125.04 941.95 1125.2 946.637ZM1343.34 946.637C1343.43 949.069 1343.05 951.495 1342.22 953.769C1341.39 956.043 1340.13 958.119 1338.53 959.872C1336.92 961.625 1334.99 963.02 1332.86 963.973C1330.72 964.925 1328.43 965.417 1326.11 965.418C1323.79 965.418 1321.5 964.928 1319.36 963.977C1317.23 963.026 1315.3 961.632 1313.69 959.881C1312.08 958.129 1310.82 956.054 1309.99 953.78C1309.16 951.507 1308.78 949.082 1308.86 946.649C1309.03 941.962 1310.91 937.525 1314.13 934.269C1317.34 931.013 1321.63 929.192 1326.1 929.191C1330.56 929.189 1334.86 931.006 1338.07 934.26C1341.29 937.514 1343.18 941.95 1343.34 946.637ZM1561.5 946.637C1561.5 951.441 1559.68 956.048 1556.44 959.445C1553.21 962.842 1548.82 964.75 1544.25 964.75C1539.67 964.75 1535.28 962.842 1532.05 959.445C1528.81 956.048 1527 951.441 1527 946.637C1527 941.833 1528.81 937.226 1532.05 933.829C1535.28 930.432 1539.67 928.523 1544.25 928.523C1548.82 928.523 1553.21 930.432 1556.44 933.829C1559.68 937.226 1561.5 941.833 1561.5 946.637ZM1779.64 946.637C1779.64 951.441 1777.82 956.048 1774.59 959.445C1771.35 962.842 1766.96 964.75 1762.39 964.75C1757.81 964.75 1753.43 962.842 1750.19 959.445C1746.95 956.048 1745.14 951.441 1745.14 946.637C1745.14 941.833 1746.95 937.226 1750.19 933.829C1753.43 930.432 1757.81 928.523 1762.39 928.523C1766.96 928.523 1771.35 930.432 1774.59 933.829C1777.82 937.226 1779.64 941.833 1779.64 946.637ZM1997.78 946.637C1997.78 951.441 1995.96 956.048 1992.73 959.445C1989.49 962.842 1985.11 964.75 1980.53 964.75C1975.95 964.75 1971.57 962.842 1968.33 959.445C1965.1 956.048 1963.28 951.441 1963.28 946.637C1963.28 941.833 1965.1 937.226 1968.33 933.829C1971.57 930.432 1975.95 928.523 1980.53 928.523C1985.11 928.523 1989.49 930.432 1992.73 933.829C1995.96 937.226 1997.78 941.833 1997.78 946.637ZM2215.91 946.637C2215.91 951.441 2214.09 956.048 2210.86 959.445C2207.62 962.842 2203.24 964.75 2198.66 964.75C2194.09 964.75 2189.7 962.842 2186.46 959.445C2183.23 956.048 2181.41 951.441 2181.41 946.637C2181.41 941.833 2183.23 937.226 2186.46 933.829C2189.7 930.432 2194.09 928.523 2198.66 928.523C2203.24 928.523 2207.62 930.432 2210.86 933.829C2214.09 937.226 2215.91 941.833 2215.91 946.637ZM2434.05 946.637C2434.05 951.441 2432.24 956.048 2429 959.445C2425.77 962.842 2421.38 964.75 2416.8 964.75C2412.23 964.75 2407.84 962.842 2404.6 959.445C2401.37 956.048 2399.55 951.441 2399.55 946.637C2399.55 941.833 2401.37 937.226 2404.6 933.829C2407.84 930.432 2412.23 928.523 2416.8 928.523C2421.38 928.523 2425.77 930.432 2429 933.829C2432.24 937.226 2434.05 941.833 2434.05 946.637ZM34.5128 1178.78C34.5121 1181.16 34.0653 1183.51 33.1974 1185.71C32.3295 1187.91 31.0576 1189.91 29.4547 1191.59C27.8517 1193.27 25.9486 1194.6 23.8546 1195.51C21.7607 1196.42 19.517 1196.89 17.2508 1196.89C14.9846 1196.89 12.7404 1196.42 10.647 1195.51C8.55361 1194.6 6.65232 1193.26 5.05044 1191.58C3.44855 1189.9 2.17774 1187.9 1.31122 1185.7C0.444694 1183.5 -0.000754471 1181.15 9.59232e-07 1178.77C9.59233e-07 1173.96 1.81739 1169.36 5.05254 1165.96C8.2877 1162.56 12.6756 1160.65 17.2508 1160.65C21.826 1160.65 26.2139 1162.56 29.4491 1165.96C32.6842 1169.36 34.5016 1173.96 34.5016 1178.77L34.5128 1178.78ZM252.643 1178.78C252.642 1183.58 250.823 1188.19 247.587 1191.58C244.351 1194.98 239.962 1196.89 235.387 1196.89C230.812 1196.88 226.425 1194.97 223.191 1191.58C219.957 1188.18 218.14 1183.57 218.142 1178.77C218.142 1173.96 219.96 1169.36 223.195 1165.96C226.43 1162.56 230.817 1160.65 235.392 1160.65C239.968 1160.65 244.356 1162.56 247.591 1165.96C250.826 1169.36 252.643 1173.97 252.643 1178.78ZM470.786 1178.78C470.785 1181.16 470.338 1183.51 469.47 1185.71C468.602 1187.91 467.33 1189.91 465.727 1191.59C464.124 1193.27 462.221 1194.6 460.127 1195.51C458.033 1196.42 455.79 1196.89 453.524 1196.89C451.257 1196.89 449.013 1196.42 446.92 1195.51C444.826 1194.6 442.925 1193.26 441.323 1191.58C439.721 1189.9 438.451 1187.9 437.584 1185.7C436.717 1183.5 436.272 1181.15 436.273 1178.77C436.273 1173.96 438.09 1169.35 441.327 1165.95C444.563 1162.56 448.952 1160.65 453.529 1160.65C458.106 1160.65 462.495 1162.56 465.732 1165.95C468.968 1169.35 470.786 1173.97 470.786 1178.78ZM688.928 1178.78C688.927 1181.16 688.48 1183.51 687.612 1185.71C686.744 1187.91 685.473 1189.91 683.87 1191.59C682.267 1193.27 680.364 1194.6 678.27 1195.51C676.176 1196.42 673.932 1196.89 671.666 1196.89C669.4 1196.89 667.155 1196.42 665.062 1195.51C662.969 1194.6 661.067 1193.26 659.465 1191.58C657.863 1189.9 656.593 1187.9 655.726 1185.7C654.86 1183.5 654.414 1181.15 654.415 1178.77C654.415 1173.96 656.233 1169.36 659.468 1165.96C662.703 1162.56 667.091 1160.65 671.666 1160.65C676.241 1160.65 680.628 1162.56 683.863 1165.96C687.099 1169.36 688.917 1173.96 688.917 1178.77L688.928 1178.78ZM907.07 1178.78C907.07 1181.16 906.622 1183.51 905.754 1185.71C904.886 1187.91 903.614 1189.91 902.011 1191.59C900.408 1193.27 898.506 1194.6 896.412 1195.51C894.318 1196.42 892.074 1196.89 889.808 1196.89C887.541 1196.89 885.298 1196.42 883.204 1195.51C881.111 1194.6 879.209 1193.26 877.607 1191.58C876.005 1189.9 874.735 1187.9 873.868 1185.7C873.001 1183.5 872.556 1181.15 872.557 1178.77C872.557 1173.96 874.374 1169.36 877.609 1165.96C880.844 1162.56 885.232 1160.65 889.808 1160.65C894.383 1160.65 898.771 1162.56 902.006 1165.96C905.241 1169.36 907.058 1173.96 907.058 1178.77L907.07 1178.78ZM1125.2 1178.78C1125.2 1183.58 1123.38 1188.19 1120.15 1191.59C1116.91 1194.98 1112.53 1196.89 1107.95 1196.89C1103.37 1196.89 1098.99 1194.98 1095.75 1191.59C1092.52 1188.19 1090.7 1183.58 1090.7 1178.78C1090.7 1173.97 1092.52 1169.37 1095.75 1165.97C1098.99 1162.57 1103.37 1160.66 1107.95 1160.66C1112.53 1160.66 1116.91 1162.57 1120.15 1165.97C1123.38 1169.37 1125.2 1173.97 1125.2 1178.78ZM1343.34 1178.78C1343.34 1183.58 1341.53 1188.19 1338.29 1191.59C1335.06 1194.98 1330.67 1196.89 1326.09 1196.89C1321.52 1196.89 1317.13 1194.98 1313.89 1191.59C1310.66 1188.19 1308.84 1183.58 1308.84 1178.78C1308.84 1173.97 1310.66 1169.37 1313.89 1165.97C1317.13 1162.57 1321.52 1160.66 1326.09 1160.66C1330.67 1160.66 1335.06 1162.57 1338.29 1165.97C1341.53 1169.37 1343.34 1173.97 1343.34 1178.78ZM1561.5 1178.78C1561.5 1183.58 1559.68 1188.19 1556.44 1191.59C1553.2 1194.99 1548.81 1196.89 1544.23 1196.89C1539.66 1196.89 1535.27 1194.98 1532.03 1191.58C1528.8 1188.18 1526.98 1183.57 1526.98 1178.77C1526.98 1173.96 1528.8 1169.35 1532.04 1165.95C1535.27 1162.56 1539.66 1160.65 1544.24 1160.65C1548.82 1160.65 1553.21 1162.56 1556.44 1165.95C1559.68 1169.35 1561.5 1173.97 1561.5 1178.78ZM1779.64 1178.78C1779.64 1183.58 1777.82 1188.19 1774.58 1191.59C1771.34 1194.99 1766.95 1196.89 1762.38 1196.89C1757.8 1196.89 1753.41 1194.98 1750.18 1191.58C1746.94 1188.18 1745.12 1183.57 1745.13 1178.77C1745.13 1173.96 1746.94 1169.36 1750.18 1165.96C1753.41 1162.56 1757.8 1160.65 1762.38 1160.65C1766.95 1160.65 1771.34 1162.56 1774.57 1165.96C1777.81 1169.36 1779.63 1173.96 1779.63 1178.77L1779.64 1178.78ZM1997.78 1178.78C1997.78 1183.59 1995.96 1188.19 1992.72 1191.59C1989.48 1194.99 1985.09 1196.9 1980.51 1196.9C1975.93 1196.9 1971.54 1194.99 1968.31 1191.58C1965.07 1188.18 1963.25 1183.57 1963.26 1178.77C1963.26 1173.96 1965.07 1169.35 1968.31 1165.95C1971.55 1162.56 1975.94 1160.65 1980.51 1160.65C1985.09 1160.65 1989.48 1162.56 1992.71 1165.95C1995.95 1169.35 1997.77 1173.96 1997.77 1178.77L1997.78 1178.78ZM2215.91 1178.78C2215.91 1181.16 2215.46 1183.51 2214.6 1185.71C2213.73 1187.91 2212.46 1189.9 2210.86 1191.58C2209.25 1193.27 2207.35 1194.6 2205.26 1195.51C2203.16 1196.42 2200.92 1196.89 2198.65 1196.89C2196.39 1196.88 2194.15 1196.42 2192.05 1195.5C2189.96 1194.59 2188.06 1193.26 2186.46 1191.58C2184.86 1189.89 2183.59 1187.9 2182.72 1185.7C2181.85 1183.5 2181.41 1181.15 2181.41 1178.77C2181.41 1173.96 2183.23 1169.36 2186.46 1165.96C2189.7 1162.56 2194.09 1160.65 2198.66 1160.65C2203.24 1160.65 2207.62 1162.56 2210.86 1165.96C2214.09 1169.36 2215.91 1173.97 2215.91 1178.78ZM2434.05 1178.78C2434.05 1183.58 2432.23 1188.19 2429 1191.59C2425.76 1194.99 2421.37 1196.89 2416.79 1196.89C2412.21 1196.89 2407.83 1194.98 2404.59 1191.58C2401.36 1188.18 2399.54 1183.57 2399.54 1178.77C2399.54 1173.96 2401.36 1169.35 2404.59 1165.95C2407.83 1162.56 2412.22 1160.65 2416.8 1160.65C2421.37 1160.65 2425.76 1162.56 2429 1165.95C2432.24 1169.35 2434.05 1173.97 2434.05 1178.78ZM34.5128 1410.91C34.5128 1415.71 32.6954 1420.32 29.4603 1423.72C26.2251 1427.11 21.8372 1429.02 17.262 1429.02C12.6868 1429.02 8.29893 1427.11 5.06377 1423.72C1.82862 1420.32 0.0112319 1415.71 0.0112319 1410.91C0.0112319 1406.1 1.82862 1401.5 5.06377 1398.1C8.29893 1394.7 12.6868 1392.79 17.262 1392.79C21.8372 1392.79 26.2251 1394.7 29.4603 1398.1C32.6954 1401.5 34.5128 1406.1 34.5128 1410.91ZM252.643 1410.91C252.643 1415.71 250.826 1420.32 247.591 1423.72C244.356 1427.11 239.968 1429.02 235.392 1429.02C230.817 1429.02 226.43 1427.11 223.195 1423.72C219.96 1420.32 218.142 1415.71 218.142 1410.91C218.142 1406.1 219.96 1401.5 223.195 1398.1C226.43 1394.7 230.817 1392.79 235.392 1392.79C239.968 1392.79 244.356 1394.7 247.591 1398.1C250.826 1401.5 252.643 1406.1 252.643 1410.91ZM470.786 1410.91C470.786 1415.71 468.968 1420.32 465.733 1423.72C462.498 1427.11 458.11 1429.02 453.535 1429.02C448.96 1429.02 444.572 1427.11 441.337 1423.72C438.101 1420.32 436.284 1415.71 436.284 1410.91C436.284 1406.1 438.101 1401.5 441.337 1398.1C444.572 1394.7 448.96 1392.79 453.535 1392.79C458.11 1392.79 462.498 1394.7 465.733 1398.1C468.968 1401.5 470.786 1406.1 470.786 1410.91ZM688.928 1410.91C688.928 1415.71 687.111 1420.32 683.875 1423.72C680.64 1427.11 676.252 1429.02 671.677 1429.02C667.102 1429.02 662.714 1427.11 659.479 1423.72C656.244 1420.32 654.426 1415.71 654.426 1410.91C654.426 1406.1 656.244 1401.5 659.479 1398.1C662.714 1394.7 667.102 1392.79 671.677 1392.79C676.252 1392.79 680.64 1394.7 683.875 1398.1C687.111 1401.5 688.928 1406.1 688.928 1410.91ZM907.07 1410.91C907.07 1415.71 905.252 1420.32 902.017 1423.72C898.782 1427.11 894.395 1429.02 889.82 1429.02C885.244 1429.02 880.856 1427.11 877.621 1423.72C874.386 1420.32 872.569 1415.71 872.569 1410.91C872.569 1406.1 874.386 1401.5 877.621 1398.1C880.856 1394.7 885.244 1392.79 889.82 1392.79C894.395 1392.79 898.782 1394.7 902.017 1398.1C905.252 1401.5 907.07 1406.1 907.07 1410.91ZM1125.2 1410.91C1125.29 1413.34 1124.9 1415.77 1124.07 1418.04C1123.25 1420.31 1121.99 1422.39 1120.38 1424.14C1118.77 1425.89 1116.84 1427.29 1114.71 1428.24C1112.57 1429.19 1110.28 1429.68 1107.96 1429.68C1105.64 1429.68 1103.35 1429.19 1101.21 1428.24C1099.08 1427.29 1097.15 1425.89 1095.54 1424.14C1093.93 1422.39 1092.68 1420.31 1091.85 1418.04C1091.02 1415.77 1090.64 1413.34 1090.72 1410.91C1090.89 1406.22 1092.77 1401.78 1095.99 1398.53C1099.2 1395.27 1103.49 1393.46 1107.96 1393.46C1112.43 1393.46 1116.72 1395.27 1119.93 1398.53C1123.15 1401.78 1125.04 1406.22 1125.2 1410.91ZM1343.34 1410.91C1343.43 1413.34 1343.04 1415.77 1342.22 1418.04C1341.39 1420.31 1340.13 1422.39 1338.52 1424.14C1336.91 1425.89 1334.98 1427.29 1332.85 1428.24C1330.72 1429.19 1328.42 1429.68 1326.1 1429.68C1323.79 1429.68 1321.49 1429.19 1319.36 1428.24C1317.22 1427.29 1315.29 1425.89 1313.68 1424.14C1312.08 1422.39 1310.82 1420.31 1309.99 1418.04C1309.16 1415.77 1308.78 1413.34 1308.86 1410.91C1309.03 1406.22 1310.91 1401.78 1314.13 1398.53C1317.35 1395.27 1321.64 1393.46 1326.1 1393.46C1330.57 1393.46 1334.86 1395.27 1338.08 1398.53C1341.29 1401.78 1343.18 1406.22 1343.34 1410.91ZM1561.5 1410.91C1561.5 1415.71 1559.68 1420.32 1556.44 1423.72C1553.21 1427.11 1548.82 1429.02 1544.25 1429.02C1539.67 1429.02 1535.28 1427.11 1532.05 1423.72C1528.81 1420.32 1527 1415.71 1527 1410.91C1527 1406.1 1528.81 1401.5 1532.05 1398.1C1535.28 1394.7 1539.67 1392.79 1544.25 1392.79C1548.82 1392.79 1553.21 1394.7 1556.44 1398.1C1559.68 1401.5 1561.5 1406.1 1561.5 1410.91ZM1779.64 1410.91C1779.64 1415.71 1777.82 1420.32 1774.59 1423.72C1771.35 1427.11 1766.96 1429.02 1762.39 1429.02C1757.81 1429.02 1753.43 1427.11 1750.19 1423.72C1746.95 1420.32 1745.14 1415.71 1745.14 1410.91C1745.14 1406.1 1746.95 1401.5 1750.19 1398.1C1753.43 1394.7 1757.81 1392.79 1762.39 1392.79C1766.96 1392.79 1771.35 1394.7 1774.59 1398.1C1777.82 1401.5 1779.64 1406.1 1779.64 1410.91ZM1997.78 1410.91C1997.78 1415.71 1995.96 1420.32 1992.73 1423.72C1989.49 1427.11 1985.11 1429.02 1980.53 1429.02C1975.95 1429.02 1971.57 1427.11 1968.33 1423.72C1965.1 1420.32 1963.28 1415.71 1963.28 1410.91C1963.28 1406.1 1965.1 1401.5 1968.33 1398.1C1971.57 1394.7 1975.95 1392.79 1980.53 1392.79C1985.11 1392.79 1989.49 1394.7 1992.73 1398.1C1995.96 1401.5 1997.78 1406.1 1997.78 1410.91ZM2215.91 1410.91C2215.91 1415.71 2214.09 1420.32 2210.86 1423.72C2207.62 1427.11 2203.24 1429.02 2198.66 1429.02C2194.09 1429.02 2189.7 1427.11 2186.46 1423.72C2183.23 1420.32 2181.41 1415.71 2181.41 1410.91C2181.41 1406.1 2183.23 1401.5 2186.46 1398.1C2189.7 1394.7 2194.09 1392.79 2198.66 1392.79C2203.24 1392.79 2207.62 1394.7 2210.86 1398.1C2214.09 1401.5 2215.91 1406.1 2215.91 1410.91ZM2434.05 1410.91C2434.05 1415.71 2432.24 1420.32 2429 1423.72C2425.77 1427.11 2421.38 1429.02 2416.8 1429.02C2412.23 1429.02 2407.84 1427.11 2404.6 1423.72C2401.37 1420.32 2399.55 1415.71 2399.55 1410.91C2399.55 1406.1 2401.37 1401.5 2404.6 1398.1C2407.84 1394.7 2412.23 1392.79 2416.8 1392.79C2421.38 1392.79 2425.77 1394.7 2429 1398.1C2432.24 1401.5 2434.05 1406.1 2434.05 1410.91ZM34.5128 1643.04C34.5121 1645.42 34.0653 1647.77 33.1974 1649.97C32.3295 1652.17 31.0576 1654.17 29.4547 1655.85C27.8517 1657.53 25.9486 1658.86 23.8546 1659.77C21.7607 1660.68 19.517 1661.15 17.2508 1661.15C14.9846 1661.15 12.7404 1660.68 10.647 1659.77C8.55361 1658.86 6.65232 1657.52 5.05044 1655.84C3.44855 1654.16 2.17774 1652.16 1.31122 1649.96C0.444694 1647.76 -0.000754471 1645.4 9.59232e-07 1643.02C0.00152602 1638.22 1.82052 1633.61 5.05675 1630.22C8.29299 1626.82 12.6812 1624.92 17.2564 1624.92C21.8316 1624.92 26.2185 1626.83 29.4526 1630.23C32.6866 1633.63 34.5144 1638.23 34.5128 1643.04ZM252.643 1643.04C252.642 1647.84 250.823 1652.45 247.587 1655.84C244.351 1659.24 239.962 1661.15 235.387 1661.14C230.812 1661.14 226.425 1659.23 223.191 1655.83C219.957 1652.44 218.14 1647.83 218.142 1643.02C218.143 1638.22 219.962 1633.61 223.198 1630.22C226.435 1626.82 230.824 1624.92 235.399 1624.92C239.974 1624.92 244.361 1626.83 247.595 1630.23C250.829 1633.63 252.645 1638.23 252.643 1643.04ZM470.786 1643.04C470.785 1645.42 470.338 1647.77 469.47 1649.97C468.602 1652.17 467.33 1654.17 465.727 1655.85C464.124 1657.53 462.221 1658.86 460.127 1659.77C458.033 1660.68 455.79 1661.15 453.524 1661.15C451.257 1661.15 449.013 1660.68 446.92 1659.77C444.826 1658.86 442.925 1657.52 441.323 1655.84C439.721 1654.16 438.451 1652.16 437.584 1649.96C436.717 1647.76 436.272 1645.4 436.273 1643.02C436.274 1638.22 438.094 1633.61 441.331 1630.21C444.568 1626.82 448.958 1624.91 453.535 1624.91C458.112 1624.91 462.5 1626.82 465.735 1630.22C468.97 1633.62 470.787 1638.23 470.786 1643.04ZM688.928 1643.04C688.927 1645.42 688.48 1647.77 687.612 1649.97C686.744 1652.17 685.473 1654.17 683.87 1655.85C682.267 1657.53 680.364 1658.86 678.27 1659.77C676.176 1660.68 673.932 1661.15 671.666 1661.15C669.4 1661.15 667.155 1660.68 665.062 1659.77C662.969 1658.86 661.067 1657.52 659.465 1655.84C657.863 1654.16 656.593 1652.16 655.726 1649.96C654.86 1647.76 654.414 1645.4 654.415 1643.02C654.417 1638.22 656.235 1633.61 659.471 1630.22C662.707 1626.82 667.096 1624.92 671.672 1624.92C676.247 1624.92 680.634 1626.83 683.868 1630.23C687.102 1633.63 688.929 1638.23 688.928 1643.04ZM907.07 1643.04C907.07 1645.42 906.622 1647.77 905.754 1649.97C904.886 1652.17 903.614 1654.17 902.011 1655.85C900.408 1657.53 898.506 1658.86 896.412 1659.77C894.318 1660.68 892.074 1661.15 889.808 1661.15C887.541 1661.15 885.298 1660.68 883.204 1659.77C881.111 1658.86 879.209 1657.52 877.607 1655.84C876.005 1654.16 874.735 1652.16 873.868 1649.96C873.001 1647.76 872.556 1645.4 872.557 1643.02C872.558 1638.22 874.377 1633.61 877.614 1630.22C880.85 1626.82 885.238 1624.92 889.813 1624.92C894.388 1624.92 898.776 1626.83 902.01 1630.23C905.244 1633.63 907.06 1638.23 907.058 1643.04H907.07ZM1125.2 1643.04C1125.2 1647.84 1123.38 1652.45 1120.15 1655.84C1116.91 1659.24 1112.53 1661.15 1107.95 1661.15C1103.37 1661.15 1098.99 1659.24 1095.75 1655.84C1092.52 1652.45 1090.7 1647.84 1090.7 1643.04C1090.7 1638.23 1092.52 1633.63 1095.75 1630.23C1098.99 1626.83 1103.37 1624.92 1107.95 1624.92C1112.53 1624.92 1116.91 1626.83 1120.15 1630.23C1123.38 1633.63 1125.2 1638.23 1125.2 1643.04ZM1343.34 1643.04C1343.34 1647.84 1341.53 1652.45 1338.29 1655.84C1335.06 1659.24 1330.67 1661.15 1326.09 1661.15C1321.52 1661.15 1317.13 1659.24 1313.89 1655.84C1310.66 1652.45 1308.84 1647.84 1308.84 1643.04C1308.84 1638.23 1310.66 1633.63 1313.89 1630.23C1317.13 1626.83 1321.52 1624.92 1326.09 1624.92C1330.67 1624.92 1335.06 1626.83 1338.29 1630.23C1341.53 1633.63 1343.34 1638.23 1343.34 1643.04ZM1561.5 1643.04C1561.5 1647.84 1559.68 1652.45 1556.44 1655.85C1553.2 1659.24 1548.81 1661.15 1544.23 1661.15C1539.66 1661.15 1535.27 1659.24 1532.03 1655.84C1528.8 1652.44 1526.98 1647.83 1526.98 1643.02C1526.98 1640.65 1527.43 1638.29 1528.3 1636.09C1529.17 1633.89 1530.44 1631.9 1532.04 1630.21C1533.64 1628.53 1535.55 1627.2 1537.64 1626.29C1539.74 1625.38 1541.98 1624.91 1544.25 1624.91C1546.51 1624.91 1548.76 1625.38 1550.85 1626.29C1552.94 1627.2 1554.84 1628.54 1556.45 1630.22C1558.05 1631.91 1559.32 1633.9 1560.19 1636.1C1561.05 1638.3 1561.5 1640.66 1561.5 1643.04ZM1779.64 1643.04C1779.64 1647.84 1777.82 1652.45 1774.58 1655.85C1771.34 1659.24 1766.95 1661.15 1762.38 1661.15C1757.8 1661.15 1753.41 1659.24 1750.18 1655.84C1746.94 1652.44 1745.12 1647.83 1745.13 1643.02C1745.13 1638.22 1746.95 1633.61 1750.18 1630.22C1753.42 1626.82 1757.81 1624.92 1762.38 1624.92C1766.96 1624.92 1771.34 1626.83 1774.58 1630.23C1777.81 1633.63 1779.64 1638.23 1779.64 1643.04ZM1997.78 1643.04C1997.78 1647.84 1995.96 1652.45 1992.72 1655.85C1989.48 1659.25 1985.09 1661.16 1980.51 1661.16C1975.93 1661.16 1971.54 1659.24 1968.31 1655.84C1965.07 1652.44 1963.25 1647.83 1963.26 1643.02C1963.26 1640.65 1963.7 1638.29 1964.57 1636.09C1965.44 1633.89 1966.71 1631.9 1968.31 1630.21C1969.92 1628.53 1971.82 1627.2 1973.91 1626.29C1976.01 1625.38 1978.25 1624.91 1980.52 1624.91C1982.78 1624.91 1985.03 1625.38 1987.12 1626.29C1989.22 1627.2 1991.12 1628.54 1992.72 1630.22C1994.32 1631.91 1995.59 1633.9 1996.46 1636.1C1997.32 1638.3 1997.78 1640.66 1997.78 1643.04ZM2215.91 1643.04C2215.91 1645.42 2215.46 1647.77 2214.6 1649.97C2213.73 1652.17 2212.46 1654.16 2210.86 1655.84C2209.25 1657.52 2207.35 1658.86 2205.26 1659.77C2203.16 1660.68 2200.92 1661.14 2198.65 1661.14C2196.39 1661.14 2194.15 1660.67 2192.05 1659.76C2189.96 1658.85 2188.06 1657.52 2186.46 1655.83C2184.86 1654.15 2183.59 1652.15 2182.72 1649.96C2181.85 1647.76 2181.41 1645.4 2181.41 1643.02C2181.41 1638.22 2183.23 1633.61 2186.47 1630.22C2189.7 1626.82 2194.09 1624.92 2198.67 1624.92C2203.24 1624.92 2207.63 1626.83 2210.86 1630.23C2214.1 1633.63 2215.91 1638.23 2215.91 1643.04ZM2434.05 1643.04C2434.05 1647.84 2432.23 1652.45 2429 1655.85C2425.76 1659.24 2421.37 1661.15 2416.79 1661.15C2412.21 1661.15 2407.83 1659.24 2404.59 1655.84C2401.36 1652.44 2399.54 1647.83 2399.54 1643.02C2399.54 1640.65 2399.99 1638.29 2400.86 1636.09C2401.72 1633.89 2403 1631.9 2404.6 1630.21C2406.2 1628.53 2408.1 1627.2 2410.2 1626.29C2412.29 1625.38 2414.54 1624.91 2416.8 1624.91C2419.07 1624.91 2421.31 1625.38 2423.41 1626.29C2425.5 1627.2 2427.4 1628.54 2429 1630.22C2430.6 1631.91 2431.88 1633.9 2432.74 1636.1C2433.61 1638.3 2434.05 1640.66 2434.05 1643.04ZM34.5128 1875.17C34.5121 1877.55 34.0653 1879.9 33.1974 1882.1C32.3295 1884.3 31.0576 1886.29 29.4547 1887.98C27.8517 1889.66 25.9486 1890.99 23.8546 1891.9C21.7607 1892.81 19.517 1893.28 17.2508 1893.28C14.9846 1893.28 12.7404 1892.81 10.647 1891.9C8.55361 1890.99 6.65232 1889.65 5.05044 1887.97C3.44855 1886.29 2.17774 1884.29 1.31122 1882.09C0.444694 1879.89 -0.000754471 1877.53 9.59232e-07 1875.15C9.59233e-07 1870.35 1.81739 1865.74 5.05254 1862.35C8.2877 1858.95 12.6756 1857.04 17.2508 1857.04C21.826 1857.04 26.2139 1858.95 29.4491 1862.35C32.6842 1865.74 34.5016 1870.35 34.5016 1875.15L34.5128 1875.17ZM252.643 1875.17C252.642 1879.97 250.823 1884.58 247.587 1887.97C244.351 1891.37 239.962 1893.28 235.387 1893.27C230.812 1893.27 226.425 1891.36 223.191 1887.96C219.957 1884.57 218.14 1879.96 218.142 1875.15C218.142 1870.35 219.96 1865.74 223.195 1862.35C226.43 1858.95 230.817 1857.04 235.392 1857.04C239.968 1857.04 244.356 1858.95 247.591 1862.35C250.826 1865.74 252.643 1870.36 252.643 1875.17ZM470.786 1875.17C470.785 1877.55 470.338 1879.9 469.47 1882.1C468.602 1884.3 467.33 1886.29 465.727 1887.98C464.124 1889.66 462.221 1890.99 460.127 1891.9C458.033 1892.81 455.79 1893.28 453.524 1893.28C451.257 1893.28 449.013 1892.81 446.92 1891.9C444.826 1890.99 442.925 1889.65 441.323 1887.97C439.721 1886.29 438.451 1884.29 437.584 1882.09C436.717 1879.89 436.272 1877.53 436.273 1875.15C436.273 1870.35 438.09 1865.74 441.327 1862.34C444.563 1858.94 448.952 1857.03 453.529 1857.03C458.106 1857.03 462.495 1858.94 465.732 1862.34C468.968 1865.74 470.786 1870.36 470.786 1875.17ZM688.928 1875.17C688.927 1877.55 688.48 1879.9 687.612 1882.1C686.744 1884.3 685.473 1886.29 683.87 1887.98C682.267 1889.66 680.364 1890.99 678.27 1891.9C676.176 1892.81 673.932 1893.28 671.666 1893.28C669.4 1893.28 667.155 1892.81 665.062 1891.9C662.969 1890.99 661.067 1889.65 659.465 1887.97C657.863 1886.29 656.593 1884.29 655.726 1882.09C654.86 1879.89 654.414 1877.53 654.415 1875.15C654.415 1870.35 656.233 1865.74 659.468 1862.35C662.703 1858.95 667.091 1857.04 671.666 1857.04C676.241 1857.04 680.628 1858.95 683.863 1862.35C687.099 1865.74 688.917 1870.35 688.917 1875.15L688.928 1875.17ZM907.07 1875.17C907.07 1877.55 906.622 1879.9 905.754 1882.1C904.886 1884.3 903.614 1886.29 902.011 1887.98C900.408 1889.66 898.506 1890.99 896.412 1891.9C894.318 1892.81 892.074 1893.28 889.808 1893.28C887.541 1893.28 885.298 1892.81 883.204 1891.9C881.111 1890.99 879.209 1889.65 877.607 1887.97C876.005 1886.29 874.735 1884.29 873.868 1882.09C873.001 1879.89 872.556 1877.53 872.557 1875.15C872.557 1870.35 874.374 1865.74 877.609 1862.35C880.844 1858.95 885.232 1857.04 889.808 1857.04C894.383 1857.04 898.771 1858.95 902.006 1862.35C905.241 1865.74 907.058 1870.35 907.058 1875.15L907.07 1875.17ZM1125.2 1875.17C1125.2 1879.97 1123.38 1884.58 1120.15 1887.97C1116.91 1891.37 1112.53 1893.28 1107.95 1893.28C1103.37 1893.28 1098.99 1891.37 1095.75 1887.97C1092.52 1884.58 1090.7 1879.97 1090.7 1875.17C1090.7 1870.36 1092.52 1865.76 1095.75 1862.36C1098.99 1858.96 1103.37 1857.05 1107.95 1857.05C1112.53 1857.05 1116.91 1858.96 1120.15 1862.36C1123.38 1865.76 1125.2 1870.36 1125.2 1875.17ZM1343.34 1875.17C1343.34 1879.97 1341.53 1884.58 1338.29 1887.97C1335.06 1891.37 1330.67 1893.28 1326.09 1893.28C1321.52 1893.28 1317.13 1891.37 1313.89 1887.97C1310.66 1884.58 1308.84 1879.97 1308.84 1875.17C1308.84 1870.36 1310.66 1865.76 1313.89 1862.36C1317.13 1858.96 1321.52 1857.05 1326.09 1857.05C1330.67 1857.05 1335.06 1858.96 1338.29 1862.36C1341.53 1865.76 1343.34 1870.36 1343.34 1875.17ZM1561.5 1875.17C1561.5 1879.97 1559.68 1884.58 1556.44 1887.98C1553.2 1891.37 1548.81 1893.28 1544.23 1893.28C1539.66 1893.28 1535.27 1891.37 1532.03 1887.97C1528.8 1884.57 1526.98 1879.96 1526.98 1875.15C1526.98 1870.35 1528.8 1865.74 1532.04 1862.34C1535.27 1858.94 1539.66 1857.03 1544.24 1857.03C1548.82 1857.03 1553.21 1858.94 1556.44 1862.34C1559.68 1865.74 1561.5 1870.36 1561.5 1875.17ZM1779.64 1875.17C1779.64 1879.97 1777.82 1884.58 1774.58 1887.98C1771.34 1891.37 1766.95 1893.28 1762.38 1893.28C1757.8 1893.28 1753.41 1891.37 1750.18 1887.97C1746.94 1884.57 1745.12 1879.96 1745.13 1875.15C1745.13 1870.35 1746.94 1865.74 1750.18 1862.35C1753.41 1858.95 1757.8 1857.04 1762.38 1857.04C1766.95 1857.04 1771.34 1858.95 1774.57 1862.35C1777.81 1865.74 1779.63 1870.35 1779.63 1875.15L1779.64 1875.17ZM1997.78 1875.17C1997.78 1877.55 1997.33 1879.9 1996.46 1882.1C1995.6 1884.3 1994.32 1886.3 1992.72 1887.98C1991.12 1889.66 1989.21 1891 1987.12 1891.91C1985.02 1892.82 1982.78 1893.29 1980.51 1893.29C1978.25 1893.28 1976 1892.82 1973.91 1891.9C1971.81 1890.99 1969.91 1889.66 1968.31 1887.97C1966.71 1886.29 1965.43 1884.29 1964.57 1882.09C1963.7 1879.89 1963.26 1877.53 1963.26 1875.15C1963.26 1870.35 1965.07 1865.74 1968.31 1862.34C1971.55 1858.94 1975.94 1857.03 1980.51 1857.03C1985.09 1857.03 1989.48 1858.94 1992.71 1862.34C1995.95 1865.74 1997.77 1870.35 1997.77 1875.15L1997.78 1875.17ZM2215.91 1875.17C2215.91 1877.55 2215.46 1879.9 2214.6 1882.1C2213.73 1884.29 2212.46 1886.29 2210.86 1887.97C2209.25 1889.65 2207.35 1890.99 2205.26 1891.9C2203.16 1892.81 2200.92 1893.27 2198.65 1893.27C2196.39 1893.27 2194.15 1892.8 2192.05 1891.89C2189.96 1890.98 2188.06 1889.65 2186.46 1887.96C2184.86 1886.28 2183.59 1884.28 2182.72 1882.09C2181.85 1879.89 2181.41 1877.53 2181.41 1875.15C2181.41 1870.35 2183.23 1865.74 2186.46 1862.35C2189.7 1858.95 2194.09 1857.04 2198.66 1857.04C2203.24 1857.04 2207.62 1858.95 2210.86 1862.35C2214.09 1865.74 2215.91 1870.36 2215.91 1875.17ZM2434.05 1875.17C2434.05 1879.97 2432.23 1884.58 2429 1887.98C2425.76 1891.37 2421.37 1893.28 2416.79 1893.28C2412.21 1893.28 2407.83 1891.37 2404.59 1887.97C2401.36 1884.57 2399.54 1879.96 2399.54 1875.15C2399.54 1870.35 2401.36 1865.74 2404.59 1862.34C2407.83 1858.94 2412.22 1857.03 2416.8 1857.03C2421.37 1857.03 2425.76 1858.94 2429 1862.34C2432.24 1865.74 2434.05 1870.36 2434.05 1875.17ZM34.5128 2107.28C34.5128 2112.09 32.6954 2116.69 29.4603 2120.09C26.2251 2123.49 21.8372 2125.4 17.262 2125.4C12.6868 2125.4 8.29893 2123.49 5.06377 2120.09C1.82862 2116.69 0.0112319 2112.09 0.0112319 2107.28C0.0112319 2102.48 1.82862 2097.87 5.06377 2094.48C8.29893 2091.08 12.6868 2089.17 17.262 2089.17C21.8372 2089.17 26.2251 2091.08 29.4603 2094.48C32.6954 2097.87 34.5128 2102.48 34.5128 2107.28ZM252.643 2107.28C252.643 2112.09 250.826 2116.69 247.591 2120.09C244.356 2123.49 239.968 2125.4 235.392 2125.4C230.817 2125.4 226.43 2123.49 223.195 2120.09C219.96 2116.69 218.142 2112.09 218.142 2107.28C218.142 2102.48 219.96 2097.87 223.195 2094.48C226.43 2091.08 230.817 2089.17 235.392 2089.17C239.968 2089.17 244.356 2091.08 247.591 2094.48C250.826 2097.87 252.643 2102.48 252.643 2107.28ZM470.786 2107.28C470.786 2112.09 468.968 2116.69 465.733 2120.09C462.498 2123.49 458.11 2125.4 453.535 2125.4C448.96 2125.4 444.572 2123.49 441.337 2120.09C438.101 2116.69 436.284 2112.09 436.284 2107.28C436.284 2102.48 438.101 2097.87 441.337 2094.48C444.572 2091.08 448.96 2089.17 453.535 2089.17C458.11 2089.17 462.498 2091.08 465.733 2094.48C468.968 2097.87 470.786 2102.48 470.786 2107.28ZM688.928 2107.28C688.928 2112.09 687.111 2116.69 683.875 2120.09C680.64 2123.49 676.252 2125.4 671.677 2125.4C667.102 2125.4 662.714 2123.49 659.479 2120.09C656.244 2116.69 654.426 2112.09 654.426 2107.28C654.426 2102.48 656.244 2097.87 659.479 2094.48C662.714 2091.08 667.102 2089.17 671.677 2089.17C676.252 2089.17 680.64 2091.08 683.875 2094.48C687.111 2097.87 688.928 2102.48 688.928 2107.28ZM907.07 2107.28C907.07 2112.09 905.252 2116.69 902.017 2120.09C898.782 2123.49 894.395 2125.4 889.82 2125.4C885.244 2125.4 880.856 2123.49 877.621 2120.09C874.386 2116.69 872.569 2112.09 872.569 2107.28C872.569 2102.48 874.386 2097.87 877.621 2094.48C880.856 2091.08 885.244 2089.17 889.82 2089.17C894.395 2089.17 898.782 2091.08 902.017 2094.48C905.252 2097.87 907.07 2102.48 907.07 2107.28ZM1125.2 2107.28C1125.29 2109.72 1124.91 2112.14 1124.08 2114.42C1123.25 2116.69 1122 2118.77 1120.39 2120.52C1118.78 2122.27 1116.85 2123.67 1114.72 2124.62C1112.59 2125.58 1110.29 2126.07 1107.97 2126.07C1105.65 2126.07 1103.36 2125.58 1101.23 2124.63C1099.09 2123.68 1097.16 2122.29 1095.55 2120.54C1093.94 2118.79 1092.68 2116.71 1091.85 2114.44C1091.02 2112.17 1090.64 2109.74 1090.72 2107.31C1090.88 2102.62 1092.77 2098.18 1095.98 2094.93C1099.19 2091.67 1103.48 2089.85 1107.95 2089.84C1112.42 2089.84 1116.71 2091.66 1119.93 2094.91C1123.14 2098.16 1125.03 2102.6 1125.2 2107.28ZM1343.34 2107.28C1343.43 2109.72 1343.05 2112.14 1342.22 2114.42C1341.39 2116.69 1340.14 2118.77 1338.53 2120.52C1336.92 2122.27 1334.99 2123.67 1332.86 2124.62C1330.73 2125.58 1328.43 2126.07 1326.12 2126.07C1323.8 2126.07 1321.5 2125.58 1319.37 2124.63C1317.23 2123.68 1315.3 2122.29 1313.69 2120.54C1312.08 2118.79 1310.83 2116.71 1310 2114.44C1309.17 2112.17 1308.78 2109.74 1308.86 2107.31C1309.02 2102.62 1310.91 2098.18 1314.12 2094.93C1317.34 2091.67 1321.63 2089.85 1326.09 2089.84C1330.56 2089.84 1334.85 2091.66 1338.07 2094.91C1341.29 2098.16 1343.18 2102.6 1343.34 2107.28ZM1561.5 2107.28C1561.5 2112.09 1559.68 2116.69 1556.44 2120.09C1553.21 2123.49 1548.82 2125.4 1544.25 2125.4C1539.67 2125.4 1535.28 2123.49 1532.05 2120.09C1528.81 2116.69 1527 2112.09 1527 2107.28C1527 2102.48 1528.81 2097.87 1532.05 2094.48C1535.28 2091.08 1539.67 2089.17 1544.25 2089.17C1548.82 2089.17 1553.21 2091.08 1556.44 2094.48C1559.68 2097.87 1561.5 2102.48 1561.5 2107.28ZM1779.64 2107.28C1779.64 2112.09 1777.82 2116.69 1774.59 2120.09C1771.35 2123.49 1766.96 2125.4 1762.39 2125.4C1757.81 2125.4 1753.43 2123.49 1750.19 2120.09C1746.95 2116.69 1745.14 2112.09 1745.14 2107.28C1745.14 2102.48 1746.95 2097.87 1750.19 2094.48C1753.43 2091.08 1757.81 2089.17 1762.39 2089.17C1766.96 2089.17 1771.35 2091.08 1774.59 2094.48C1777.82 2097.87 1779.64 2102.48 1779.64 2107.28ZM1997.78 2107.28C1997.78 2112.09 1995.96 2116.69 1992.73 2120.09C1989.49 2123.49 1985.11 2125.4 1980.53 2125.4C1975.95 2125.4 1971.57 2123.49 1968.33 2120.09C1965.1 2116.69 1963.28 2112.09 1963.28 2107.28C1963.28 2102.48 1965.1 2097.87 1968.33 2094.48C1971.57 2091.08 1975.95 2089.17 1980.53 2089.17C1985.11 2089.17 1989.49 2091.08 1992.73 2094.48C1995.96 2097.87 1997.78 2102.48 1997.78 2107.28ZM2215.91 2107.28C2215.91 2112.09 2214.09 2116.69 2210.86 2120.09C2207.62 2123.49 2203.24 2125.4 2198.66 2125.4C2194.09 2125.4 2189.7 2123.49 2186.46 2120.09C2183.23 2116.69 2181.41 2112.09 2181.41 2107.28C2181.41 2102.48 2183.23 2097.87 2186.46 2094.48C2189.7 2091.08 2194.09 2089.17 2198.66 2089.17C2203.24 2089.17 2207.62 2091.08 2210.86 2094.48C2214.09 2097.87 2215.91 2102.48 2215.91 2107.28ZM2434.05 2107.28C2434.05 2112.09 2432.24 2116.69 2429 2120.09C2425.77 2123.49 2421.38 2125.4 2416.8 2125.4C2412.23 2125.4 2407.84 2123.49 2404.6 2120.09C2401.37 2116.69 2399.55 2112.09 2399.55 2107.28C2399.55 2102.48 2401.37 2097.87 2404.6 2094.48C2407.84 2091.08 2412.23 2089.17 2416.8 2089.17C2421.38 2089.17 2425.77 2091.08 2429 2094.48C2432.24 2097.87 2434.05 2102.48 2434.05 2107.28ZM34.5128 2339.42C34.5121 2341.8 34.0653 2344.16 33.1974 2346.36C32.3295 2348.56 31.0576 2350.55 29.4547 2352.24C27.8517 2353.92 25.9486 2355.25 23.8546 2356.16C21.7607 2357.07 19.517 2357.54 17.2508 2357.54C14.9846 2357.54 12.7404 2357.07 10.647 2356.16C8.55361 2355.25 6.65232 2353.91 5.05044 2352.23C3.44855 2350.54 2.17774 2348.55 1.31122 2346.35C0.444694 2344.15 -0.000754471 2341.79 9.59232e-07 2339.41C9.59233e-07 2334.61 1.81739 2330 5.05254 2326.6C8.2877 2323.21 12.6756 2321.3 17.2508 2321.3C21.826 2321.3 26.2139 2323.21 29.4491 2326.6C32.6842 2330 34.5016 2334.61 34.5016 2339.41L34.5128 2339.42ZM252.643 2339.42C252.642 2344.23 250.823 2348.84 247.587 2352.23C244.351 2355.63 239.962 2357.53 235.387 2357.53C230.812 2357.53 226.425 2355.62 223.191 2352.22C219.957 2348.82 218.14 2344.22 218.142 2339.41C218.142 2334.61 219.96 2330 223.195 2326.6C226.43 2323.21 230.817 2321.3 235.392 2321.3C239.968 2321.3 244.356 2323.21 247.591 2326.6C250.826 2330 252.643 2334.62 252.643 2339.42ZM470.786 2339.42C470.785 2341.8 470.338 2344.16 469.47 2346.36C468.602 2348.56 467.33 2350.55 465.727 2352.24C464.124 2353.92 462.221 2355.25 460.127 2356.16C458.033 2357.07 455.79 2357.54 453.524 2357.54C451.257 2357.54 449.013 2357.07 446.92 2356.16C444.826 2355.25 442.925 2353.91 441.323 2352.23C439.721 2350.54 438.451 2348.55 437.584 2346.35C436.717 2344.15 436.272 2341.79 436.273 2339.41C436.273 2334.61 438.09 2330 441.327 2326.6C444.563 2323.2 448.952 2321.29 453.529 2321.29C458.106 2321.29 462.495 2323.2 465.732 2326.6C468.968 2330 470.786 2334.62 470.786 2339.42ZM688.928 2339.42C688.927 2341.8 688.48 2344.16 687.612 2346.36C686.744 2348.56 685.473 2350.55 683.87 2352.24C682.267 2353.92 680.364 2355.25 678.27 2356.16C676.176 2357.07 673.932 2357.54 671.666 2357.54C669.4 2357.54 667.155 2357.07 665.062 2356.16C662.969 2355.25 661.067 2353.91 659.465 2352.23C657.863 2350.54 656.593 2348.55 655.726 2346.35C654.86 2344.15 654.414 2341.79 654.415 2339.41C654.415 2334.61 656.233 2330 659.468 2326.6C662.703 2323.21 667.091 2321.3 671.666 2321.3C676.241 2321.3 680.628 2323.21 683.863 2326.6C687.099 2330 688.917 2334.61 688.917 2339.41L688.928 2339.42ZM907.07 2339.42C907.07 2341.8 906.622 2344.16 905.754 2346.36C904.886 2348.56 903.614 2350.55 902.011 2352.24C900.408 2353.92 898.506 2355.25 896.412 2356.16C894.318 2357.07 892.074 2357.54 889.808 2357.54C887.541 2357.54 885.298 2357.07 883.204 2356.16C881.111 2355.25 879.209 2353.91 877.607 2352.23C876.005 2350.54 874.735 2348.55 873.868 2346.35C873.001 2344.15 872.556 2341.79 872.557 2339.41C872.557 2334.61 874.374 2330 877.609 2326.6C880.844 2323.21 885.232 2321.3 889.808 2321.3C894.383 2321.3 898.771 2323.21 902.006 2326.6C905.241 2330 907.058 2334.61 907.058 2339.41L907.07 2339.42ZM1125.2 2339.42C1125.2 2344.23 1123.38 2348.84 1120.15 2352.23C1116.91 2355.63 1112.53 2357.54 1107.95 2357.54C1103.37 2357.54 1098.99 2355.63 1095.75 2352.23C1092.52 2348.84 1090.7 2344.23 1090.7 2339.42C1090.7 2334.62 1092.52 2330.01 1095.75 2326.62C1098.99 2323.22 1103.37 2321.31 1107.95 2321.31C1112.53 2321.31 1116.91 2323.22 1120.15 2326.62C1123.38 2330.01 1125.2 2334.62 1125.2 2339.42ZM1343.34 2339.42C1343.34 2344.23 1341.53 2348.84 1338.29 2352.23C1335.06 2355.63 1330.67 2357.54 1326.09 2357.54C1321.52 2357.54 1317.13 2355.63 1313.89 2352.23C1310.66 2348.84 1308.84 2344.23 1308.84 2339.42C1308.84 2334.62 1310.66 2330.01 1313.89 2326.62C1317.13 2323.22 1321.52 2321.31 1326.09 2321.31C1330.67 2321.31 1335.06 2323.22 1338.29 2326.62C1341.53 2330.01 1343.34 2334.62 1343.34 2339.42ZM1561.5 2339.42C1561.5 2344.23 1559.68 2348.84 1556.44 2352.24C1553.2 2355.63 1548.81 2357.54 1544.23 2357.54C1539.66 2357.54 1535.27 2355.63 1532.03 2352.23C1528.8 2348.83 1526.98 2344.22 1526.98 2339.41C1526.98 2334.61 1528.8 2330 1532.04 2326.6C1535.27 2323.2 1539.66 2321.29 1544.24 2321.29C1548.82 2321.29 1553.21 2323.2 1556.44 2326.6C1559.68 2330 1561.5 2334.62 1561.5 2339.42ZM1779.64 2339.42C1779.64 2344.23 1777.82 2348.84 1774.58 2352.24C1771.34 2355.63 1766.95 2357.54 1762.38 2357.54C1757.8 2357.54 1753.41 2355.63 1750.18 2352.23C1746.94 2348.83 1745.12 2344.22 1745.13 2339.41C1745.13 2334.61 1746.94 2330 1750.18 2326.6C1753.41 2323.21 1757.8 2321.3 1762.38 2321.3C1766.95 2321.3 1771.34 2323.21 1774.57 2326.6C1777.81 2330 1779.63 2334.61 1779.63 2339.41L1779.64 2339.42ZM1997.78 2339.42C1997.78 2344.23 1995.96 2348.84 1992.72 2352.24C1989.48 2355.64 1985.09 2357.55 1980.51 2357.54C1975.93 2357.54 1971.54 2355.63 1968.31 2352.23C1965.07 2348.83 1963.25 2344.22 1963.26 2339.41C1963.26 2334.61 1965.07 2330 1968.31 2326.6C1971.55 2323.2 1975.94 2321.29 1980.51 2321.29C1985.09 2321.29 1989.48 2323.2 1992.71 2326.6C1995.95 2330 1997.77 2334.61 1997.77 2339.41L1997.78 2339.42ZM2215.91 2339.42C2215.91 2341.8 2215.46 2344.16 2214.6 2346.36C2213.73 2348.55 2212.46 2350.55 2210.86 2352.23C2209.25 2353.91 2207.35 2355.25 2205.26 2356.16C2203.16 2357.07 2200.92 2357.53 2198.65 2357.53C2196.39 2357.53 2194.15 2357.06 2192.05 2356.15C2189.96 2355.24 2188.06 2353.91 2186.46 2352.22C2184.86 2350.54 2183.59 2348.54 2182.72 2346.34C2181.85 2344.15 2181.41 2341.79 2181.41 2339.41C2181.41 2334.61 2183.23 2330 2186.46 2326.6C2189.7 2323.21 2194.09 2321.3 2198.66 2321.3C2203.24 2321.3 2207.62 2323.21 2210.86 2326.6C2214.09 2330 2215.91 2334.62 2215.91 2339.42ZM2434.05 2339.42C2434.05 2344.23 2432.23 2348.84 2429 2352.24C2425.76 2355.63 2421.37 2357.54 2416.79 2357.54C2412.21 2357.54 2407.83 2355.63 2404.59 2352.23C2401.36 2348.83 2399.54 2344.22 2399.54 2339.41C2399.54 2334.61 2401.36 2330 2404.59 2326.6C2407.83 2323.2 2412.22 2321.29 2416.8 2321.29C2421.37 2321.29 2425.76 2323.2 2429 2326.6C2432.24 2330 2434.05 2334.62 2434.05 2339.42Z" fill="#4831D4" id="dotpath"/>
</svg>
