<svg width="2177" height="2292" viewBox="0 0 2177 2292" fill="none" xmlns="http://www.w3.org/2000/svg">
<path d="M261.204 1145.5C261.204 664.718 631.555 274.921 1088.35 274.921C1272.28 274.921 1442.07 337.924 1579.43 444.864C1597.39 400.425 1624.45 360.707 1658.68 328.544C1692.9 296.382 1733.45 272.568 1777.43 258.802C1583.16 91.115 1339.6 -0.362633 1088.35 0.00108041C487.27 0.00108041 0 512.858 0 1145.5C0 1778.14 487.27 2291 1088.35 2291C1689.43 2291 2176.7 1778.14 2176.7 1145.5C2176.7 1013.11 2155.32 885.718 2115.91 767.159C2088.65 806.046 2053.54 838.089 2013.11 860.981C1972.68 883.872 1927.92 897.044 1882.07 899.546C1903.84 977.44 1915.5 1059.92 1915.5 1145.5C1915.5 1626.28 1545.15 2016.08 1088.35 2016.08C631.555 2016.08 261.204 1626.28 261.204 1145.5Z" fill="#176BFF"/>
<path d="M2154.31 913.454C2144.62 863.844 2131.79 814.97 2115.91 767.158C2088.65 806.045 2053.54 838.088 2013.11 860.98C1972.68 883.871 1927.92 897.043 1882.07 899.545C1897.69 955.54 1907.9 1013.05 1912.54 1071.21C1961.27 1064.84 2008.12 1047.45 2049.85 1020.22C2091.59 992.986 2127.23 956.563 2154.31 913.454ZM1088.35 1646.66C1214.59 1646.5 1335.62 1593.66 1424.88 1499.7C1514.15 1405.75 1564.36 1278.37 1564.5 1145.5C1564.36 1012.63 1514.15 885.249 1424.88 791.296C1335.62 697.344 1214.59 644.495 1088.35 644.344C962.111 644.495 841.083 697.344 751.819 791.296C662.554 885.249 612.341 1012.63 612.197 1145.5C612.403 1278.35 662.635 1405.69 751.887 1499.63C841.138 1593.57 962.13 1646.44 1088.35 1646.66ZM1802.62 715.937C1833.88 715.937 1864.84 709.456 1893.73 696.863C1922.61 684.271 1948.86 665.813 1970.97 642.545C1993.07 619.277 2010.61 591.653 2022.57 561.251C2034.54 530.85 2040.7 498.266 2040.7 465.359C2040.7 432.453 2034.54 399.869 2022.57 369.467C2010.61 339.066 1993.07 311.442 1970.97 288.174C1948.86 264.906 1922.61 246.448 1893.73 233.855C1864.84 221.263 1833.88 214.781 1802.62 214.781C1739.48 214.781 1678.92 241.181 1634.27 288.174C1589.63 335.166 1564.54 398.902 1564.54 465.359C1564.54 531.817 1589.63 595.552 1634.27 642.545C1678.92 689.537 1739.48 715.937 1802.62 715.937Z" fill="#176BFF"/>
</svg>
