<svg width="2987" height="847" viewBox="0 0 2987 847" fill="none" xmlns="http://www.w3.org/2000/svg">
<path d="M231.19 87.2707C200.899 48.2806 174.814 8.6814 169.486 0.456915C168.924 -0.152305 168.083 -0.152305 167.522 0.456915C162.193 8.6814 136.109 48.2806 105.817 87.2707C-154.183 447.014 146.767 689.79 146.767 689.79L149.291 691.617C151.535 729.083 157.144 783 157.144 783H168.363H179.582C179.582 783 185.192 729.387 187.436 691.617L189.96 689.485C190.24 689.789 491.191 447.014 231.19 87.2707ZM168.363 684.305C168.363 684.305 154.901 671.817 151.254 665.422V664.81L167.522 273.083C167.522 271.864 169.205 271.864 169.205 273.083L185.472 664.81V665.422C181.826 671.817 168.363 684.305 168.363 684.305Z" fill="#23967F"/>
<path d="M732.314 604.575L606.772 271.919L606.491 271H508.814V293.361H524.577C529.362 293.361 533.866 295.505 537.245 299.181C540.621 302.856 542.311 307.759 542.311 312.965L539.497 647.766C539.497 658.179 531.617 666.756 522.044 667.064L506 667.369V689.423H601.144V667.369L591.29 667.064C581.72 666.756 573.837 658.179 573.837 647.766V332.262L710.642 689.423C712.61 694.63 717.113 698 722.182 698C727.248 698 731.752 694.63 733.723 689.423L867.429 340.226L869.4 647.766C869.4 658.487 861.517 667.064 851.666 667.369H841.531V689.423H953V667.369H937.799C928.229 667.369 920.347 658.487 920.065 648.072L919.222 313.27C919.222 302.55 927.102 293.973 936.675 293.667L953 293.361V271H857.857L732.314 604.575Z" fill="#23967F"/>
<path d="M1608.09 661.69C1604.98 658.317 1603.28 653.715 1603.28 648.191V483.723C1603.28 452.427 1594.8 427.877 1577.83 410.389C1561.14 392.897 1537.95 384 1509.11 384C1468.66 384 1436.7 401.797 1414.36 436.777C1414.08 437.39 1413.23 437.698 1412.38 437.698C1411.53 437.698 1410.97 437.082 1410.97 436.164L1400.5 392.284H1382.97L1338 420.207V435.548H1349.6C1354.97 435.548 1359.49 437.082 1362.61 440.154C1365.72 443.222 1367.41 447.824 1367.41 454.266V647.883C1367.41 653.406 1365.72 658.009 1362.61 661.385C1359.49 664.759 1355.25 666.601 1350.16 666.601H1338.85V689H1442.36V666.601H1431.05C1425.96 666.601 1421.71 664.759 1418.6 661.385C1415.49 658.009 1413.79 653.406 1413.79 647.883V519.624C1413.79 503.362 1417.19 487.099 1423.41 471.142C1429.91 455.495 1439.53 442.301 1452.26 432.175C1464.98 422.049 1480.26 417.138 1497.79 417.138C1517.59 417.138 1532.58 423.888 1541.91 437.39C1551.24 450.893 1556.05 468.381 1556.05 489.246V647.578C1556.05 653.098 1554.36 657.701 1551.24 661.077C1548.13 664.454 1543.89 666.293 1538.8 666.293H1527.49V688.692H1631V666.293H1619.69C1615.45 666.909 1611.48 665.067 1608.09 661.69Z" fill="#23967F"/>
<path d="M2552.04 296.055C2523.51 279.555 2491.63 271 2457.23 271H2323V293.305H2336.14C2341.18 293.305 2345.65 295.444 2350.13 300.333C2354.32 304.916 2356.56 310.112 2356.56 315.61V644.39C2356.56 649.888 2354.32 655.084 2350.13 659.667C2345.93 664.25 2341.18 666.693 2336.14 666.693H2323V689H2457.23C2491.63 689 2523.51 680.445 2552.04 663.944C2580.56 647.444 2603.77 622.999 2620.55 591.835C2637.33 560.668 2646 523.085 2646 480.305C2646 437.529 2637.33 400.25 2620.55 368.778C2603.49 337.001 2580.56 312.861 2552.04 296.055ZM2592.03 479.695C2592.03 518.807 2585.6 551.804 2573.01 578.389C2560.43 604.973 2543.65 624.832 2522.95 637.668C2502.26 650.501 2479.33 656.918 2454.72 656.918H2427.59C2422.56 656.918 2418.08 654.779 2413.61 649.888C2409.41 645.305 2407.18 640.112 2407.18 634.611V324.473C2407.18 318.972 2409.13 314.085 2413.61 309.194C2417.8 304.611 2422.56 302.167 2427.59 302.167H2454.72C2479.33 302.167 2502.26 308.583 2522.95 321.416C2543.65 334.249 2560.43 354.112 2573.01 380.693C2585.6 407.582 2592.03 440.888 2592.03 479.695Z" fill="#23967F"/>
<path d="M2964.4 502.001C2951.96 486.416 2927.95 473.278 2899.71 466.249C2938.7 445.166 2958.74 415.527 2958.74 377.334C2958.74 356.556 2953.67 337.917 2943.48 322.027C2933.32 306.139 2918.91 293.305 2900.56 284.444C2882.18 275.583 2860.7 271 2836.41 271H2684.13V293.305H2696.28C2701.36 293.305 2705.88 295.444 2710.41 300.333C2714.64 304.916 2716.9 310.112 2716.9 315.61V644.39C2716.9 649.888 2714.64 655.084 2710.41 659.667C2706.17 664.25 2701.36 666.693 2696.28 666.693H2683V689H2848.29C2873.42 689 2896.87 684.417 2918.07 675.249C2939.26 666.083 2956.21 652.64 2968.37 634.916C2980.78 617.196 2987 595.499 2987 570.444C2986.72 543.554 2979.37 520.638 2964.4 502.001ZM2774.82 650.193C2770.58 645.61 2768.32 640.417 2768.32 634.916V487.332H2846.88C2874.55 487.332 2895.74 494.972 2910.44 510.249C2925.13 525.528 2932.48 545.388 2932.48 569.833C2932.48 584.5 2929.07 598.862 2922.88 612C2916.38 625.446 2906.75 636.14 2893.77 644.39C2881.05 652.64 2865.23 656.918 2846.88 656.918H2788.95C2783.86 656.918 2779.34 654.779 2774.82 650.193ZM2768.61 455.86V324.779C2768.61 319.277 2770.58 314.39 2775.1 309.499C2779.34 304.916 2784.14 302.472 2789.23 302.472H2826.53C2853.35 302.472 2873.14 309.807 2885.58 323.86C2898 338.222 2904.22 356.556 2904.22 379.167C2904.22 402.389 2898.28 421.028 2886.71 435.082C2875.11 448.833 2857.6 455.86 2834.44 455.86H2768.61Z" fill="#23967F"/>
<path d="M1214.95 403.477C1193.46 390.696 1169.45 384 1143.5 384C1117.55 384 1093.26 390.391 1072.05 403.477C1050.56 416.256 1033.54 434.818 1020.98 458.25C1008.42 481.681 1002 509.071 1002 539.5C1002 569.929 1008.42 597.319 1020.98 620.75C1033.54 644.182 1050.56 662.744 1072.05 675.526C1093.54 688.304 1117.55 695 1143.5 695C1169.45 695 1193.74 688.609 1214.95 675.526C1236.44 662.744 1253.46 644.182 1266.02 620.75C1278.58 597.319 1285 569.929 1285 539.5C1285 509.071 1278.58 481.681 1266.02 458.25C1253.46 434.818 1236.44 416.256 1214.95 403.477ZM1235.6 539.5C1235.6 576.93 1227.23 607.359 1210.48 629.269C1194.02 651.179 1171.41 662.44 1143.5 662.44C1115.59 662.44 1092.98 651.179 1076.52 629.269C1059.77 607.359 1051.4 576.93 1051.4 539.5C1051.4 502.07 1059.77 471.641 1076.52 449.731C1092.98 427.821 1115.59 416.56 1143.5 416.56C1171.41 416.56 1194.02 427.821 1210.48 449.731C1227.23 471.641 1235.6 502.07 1235.6 539.5Z" fill="#23967F"/>
<path d="M2208.45 403.477C2186.81 390.696 2162.64 384 2136.5 384C2110.36 384 2085.91 390.391 2064.55 403.477C2042.9 416.256 2025.76 434.818 2013.11 458.25C2000.46 481.681 1994 509.071 1994 539.5C1994 569.929 2000.46 597.319 2013.11 620.75C2025.76 644.182 2042.9 662.744 2064.55 675.526C2086.19 688.304 2110.36 695 2136.5 695C2162.64 695 2187.09 688.609 2208.45 675.526C2230.1 662.744 2247.24 644.182 2259.89 620.75C2272.54 597.319 2279 569.929 2279 539.5C2279 509.071 2272.54 481.681 2259.89 458.25C2247.24 434.818 2229.81 416.256 2208.45 403.477ZM2229.25 539.5C2229.25 576.93 2220.82 607.359 2203.95 629.269C2187.37 651.179 2164.6 662.44 2136.5 662.44C2108.39 662.44 2085.63 651.179 2069.05 629.269C2052.18 607.359 2043.75 576.93 2043.75 539.5C2043.75 501.765 2052.18 471.641 2069.05 449.731C2085.63 427.821 2108.39 416.56 2136.5 416.56C2164.6 416.56 2187.37 427.821 2203.95 449.731C2220.54 471.641 2229.25 502.07 2229.25 539.5Z" fill="#23967F"/>
<path d="M1807.02 384C1784.36 384 1763.69 389.19 1745 399.574C1726.31 409.958 1711.58 424.01 1701.1 442.027C1690.63 459.74 1685.25 479.594 1685.25 500.667C1685.25 519.601 1689.21 537.009 1697.42 552.587C1705.35 567.552 1716.11 580.071 1729.71 590.455L1689.21 649.707C1684.11 657.036 1683.55 666.808 1687.23 674.749C1691.19 682.994 1698.56 687.883 1707.05 687.883H1718.66C1707.33 696.129 1698.27 705.901 1692.04 717.506C1684.68 730.638 1681 744.382 1681 758.43C1681 784.696 1691.76 806.381 1713 822.568C1733.96 838.754 1763.4 847 1800.5 847C1826.27 847 1850.91 842.419 1873.28 833.561C1895.93 824.706 1914.34 811.571 1927.93 794.471C1941.81 777.367 1948.89 756.599 1948.89 732.776C1948.89 707.735 1940.39 690.019 1920.57 672.918C1903.58 658.562 1876.96 650.929 1843.83 650.929H1730.56C1730.27 650.929 1729.99 650.621 1729.99 650.621C1729.99 650.621 1729.71 650.012 1729.99 649.707L1759.44 606.95C1767.37 610.919 1774.73 613.362 1781.24 614.888C1788.04 616.417 1795.69 617.026 1804.18 617.026C1827.97 617.026 1849.49 611.836 1868.18 601.452C1886.87 591.068 1901.88 577.019 1912.64 558.999C1923.4 541.286 1928.78 521.435 1928.78 500.362C1928.78 477.761 1918.59 436.529 1890.83 415.457C1890.83 415.152 1891.12 415.152 1891.12 415.152L1952 422.481V392.246H1854.59C1839.3 387.055 1823.44 384 1807.02 384ZM1840.99 575.185C1830.23 581.293 1818.62 584.653 1807.02 584.653C1788.04 584.653 1771.33 577.324 1757.17 562.971C1743.02 548.615 1735.94 527.542 1735.94 500.667C1735.94 473.792 1743.02 452.716 1757.17 438.363C1771.33 424.01 1788.04 416.678 1807.02 416.678C1818.91 416.678 1830.23 419.733 1840.99 426.145C1851.76 432.256 1860.53 441.723 1867.61 454.245C1874.41 466.767 1878.09 482.342 1878.09 500.667C1878.09 519.297 1874.69 534.871 1867.61 547.089C1860.82 559.611 1851.76 569.078 1840.99 575.185ZM1764.25 687.576H1840.99C1862.23 687.576 1875.83 692.157 1884.89 701.932C1893.95 711.703 1898.48 724.835 1898.48 740.108C1898.48 762.402 1890.27 780.727 1873.84 794.471C1857.42 808.215 1835.33 815.239 1808.15 815.239C1784.36 815.239 1764.54 809.436 1750.09 798.44C1735.65 787.447 1728.29 770.648 1728.29 749.27C1728.29 735.831 1731.69 723.309 1738.49 712.316C1745.28 701.319 1753.49 693.378 1764.25 687.576Z" fill="#23967F"/>
<path d="M2552.9 673.579C2548.25 670.071 2544.76 664.968 2541.96 658.909C2539.41 652.532 2538 645.835 2538 638.5C2538 631.165 2539.41 624.15 2541.96 618.091C2544.52 611.712 2548.25 606.929 2552.9 603.421C2557.57 599.915 2562.68 598 2568.5 598C2574.32 598 2579.43 599.915 2584.1 603.421C2588.75 606.929 2592.24 612.032 2595.04 618.091C2597.59 624.468 2599 631.165 2599 638.5C2599 645.835 2597.59 652.85 2595.04 658.909C2592.48 665.288 2588.75 670.071 2584.1 673.579C2579.43 677.085 2574.32 679 2568.5 679C2562.92 679 2557.57 677.406 2552.9 673.579ZM2581.54 669.115C2585.49 666.244 2588.3 661.779 2590.62 656.676C2592.71 651.256 2593.89 645.197 2593.89 638.5C2593.89 631.803 2592.71 625.744 2590.62 620.324C2588.51 614.903 2585.49 610.756 2581.54 607.885C2577.58 605.015 2573.38 603.421 2568.5 603.421C2563.62 603.421 2559.42 605.015 2555.46 607.885C2551.51 610.756 2548.7 615.221 2546.38 620.324C2544.29 625.744 2543.11 631.803 2543.11 638.5C2543.11 645.197 2544.29 651.256 2546.38 656.676C2548.49 662.097 2551.51 666.244 2555.46 669.115C2559.42 671.985 2563.62 673.579 2568.5 673.579C2573.38 673.579 2577.81 671.985 2581.54 669.115ZM2555.92 657.953V655.082L2556.39 654.765H2557.8C2558.25 654.765 2558.72 654.444 2558.95 654.127C2559.42 653.488 2559.42 653.171 2559.42 652.532V622.873C2559.42 622.235 2559.19 621.6 2558.95 621.279C2558.48 620.641 2558.25 620.641 2557.8 620.641H2556.39L2555.92 620.324V617.453L2556.39 617.135H2568.5C2572 617.135 2574.55 618.091 2576.64 620.324C2578.75 622.556 2579.67 625.427 2579.67 629.253C2579.67 632.124 2578.99 634.991 2577.35 636.906C2575.73 639.138 2573.85 640.415 2571.53 640.732L2574.32 642.009L2579.67 653.806C2580.14 654.765 2580.61 655.082 2581.31 655.082H2582.69L2582.93 655.403V658.27L2582.69 658.591H2575.49L2575.02 658.27L2567.56 641.05H2565.71V652.532C2565.71 653.171 2565.94 653.806 2566.18 654.127C2566.65 654.765 2566.88 654.765 2567.33 654.765H2568.73L2569.2 655.082V657.953L2568.73 658.27H2556.39L2555.92 657.953ZM2567.8 636.906C2569.67 636.906 2571.29 636.268 2572.23 634.674C2573.15 633.397 2573.85 631.165 2573.85 628.615C2573.85 626.062 2573.38 624.15 2572.46 622.556C2571.53 620.962 2570.12 620.324 2568.5 620.324H2567.56C2567.09 620.324 2566.65 620.641 2566.41 620.962C2565.94 621.597 2565.94 621.918 2565.94 622.556V636.906H2567.8Z" fill="#23967F"/>
</svg>
